<svg width="39" height="45" viewBox="0 0 39 45" fill="none" xmlns="http://www.w3.org/2000/svg">
<path d="M0.351807 36.8999V6.9579C0.351807 6.09152 0.509823 5.25114 0.825855 4.43674C1.14189 3.62235 1.5993 2.90326 2.1981 2.27947C2.7969 1.65567 3.4955 1.17051 4.2939 0.823956C5.09229 0.477402 5.90733 0.304127 6.73899 0.304127H36.5292C36.8286 0.304127 37.1114 0.364773 37.3775 0.486069C37.6436 0.607361 37.8765 0.771973 38.0761 0.9799C38.2757 1.18783 38.4254 1.43042 38.5252 1.70766C38.625 1.9849 38.6749 2.26214 38.6749 2.53938V42.462C38.6749 42.7393 38.625 43.0165 38.5252 43.2937C38.4254 43.571 38.2757 43.8136 38.0761 44.0215C37.8765 44.2294 37.6436 44.394 37.3775 44.5153C37.1114 44.6366 36.8286 44.6973 36.5292 44.6973H7.78689C6.82216 44.6973 5.88238 44.498 4.96755 44.0995C4.05271 43.7009 3.246 43.1378 2.5474 42.41C1.8488 41.6823 1.30822 40.8419 0.925655 39.8889C0.54309 38.9359 0.351807 37.9395 0.351807 36.8999ZM34.4334 40.2268V33.573H7.78689C7.38769 33.573 6.98849 33.6596 6.58929 33.8329C6.19009 34.0062 5.84079 34.2488 5.54139 34.5607C5.24199 34.8726 5.00913 35.2364 4.8428 35.6523C4.67646 36.0682 4.5933 36.484 4.5933 36.8999C4.5933 37.3504 4.67646 37.7836 4.8428 38.1994C5.00913 38.6153 5.24199 38.9792 5.54139 39.2911C5.84079 39.603 6.19009 39.8369 6.58929 39.9928C6.98849 40.1488 7.38769 40.2268 7.78689 40.2268H34.4334ZM4.5933 29.8822C5.09229 29.6396 5.61624 29.4577 6.16514 29.3364C6.71404 29.2151 7.25462 29.1545 7.78689 29.1545H34.4334V4.77463H6.73899C6.47286 4.77463 6.20673 4.82661 5.94059 4.93058C5.67446 5.03455 5.44159 5.19049 5.24199 5.39842C5.0424 5.60635 4.88438 5.84894 4.76795 6.12618C4.65151 6.40342 4.5933 6.68066 4.5933 6.9579V29.8822Z" fill="white"/>
</svg>
