<svg width="47" height="48" viewBox="0 0 47 48" fill="none" xmlns="http://www.w3.org/2000/svg">
<path d="M10.1054 26.8702H36.9315M23.5185 26.8702V47.1462M12.9796 22.0426V13.3529H10.7339C9.45777 13.3529 8.21795 13.7808 7.20978 14.5692C6.20161 15.3576 5.48241 16.4617 5.16552 17.7074L1.48267 32.1806V32.6634H14.8958V35.56C14.8958 38.4565 14.8958 40.3876 16.3329 43.2841C16.3329 43.2841 17.77 46.1807 19.6861 46.1807M34.0573 22.0426V13.3529H36.303C37.5791 13.3529 38.819 13.7808 39.8271 14.5692C40.8353 15.3576 41.5545 16.4617 41.8714 17.7074L45.5542 32.1806V32.6634H32.1411V35.56C32.1411 38.4565 32.1411 40.3876 30.704 43.2841C30.704 43.2841 29.2669 46.1807 27.3508 46.1807M12.6922 9.4908C12.6922 9.4908 9.62633 7.55975 9.62633 5.14594C9.62633 4.25071 9.97921 3.39214 10.6074 2.75912C11.2355 2.12609 12.0874 1.77046 12.9758 1.77046C13.8641 1.77046 14.716 2.12609 15.3442 2.75912C15.9723 3.39214 16.3252 4.25071 16.3252 5.14594C16.3252 7.55975 13.267 9.4908 13.267 9.4908H12.6922ZM34.3447 9.4908C34.3447 9.4908 37.4106 7.55975 37.4106 5.14594C37.4106 4.24968 37.0573 3.39013 36.4284 2.75639C35.7996 2.12264 34.9466 1.7666 34.0573 1.7666C32.2063 1.7666 30.7117 3.28054 30.7117 5.14594C30.7117 7.55975 33.7699 9.4908 33.7699 9.4908H34.3447Z" stroke="white" stroke-width="1.88054"/>
</svg>
