<svg width="47" height="47" viewBox="0 0 47 47" fill="none" xmlns="http://www.w3.org/2000/svg">
<path d="M9.94326 26.6105H36.7694M23.3563 26.6105V46.8865M12.8175 21.7828V13.0931H10.5718C9.29566 13.0931 8.05584 13.5211 7.04767 14.3095C6.0395 15.0979 5.3203 16.2019 5.00341 17.4476L1.32056 31.9209V32.4036H14.7336V35.3002C14.7336 38.1968 14.7336 40.1278 16.1708 43.0244C16.1708 43.0244 17.6079 45.921 19.524 45.921M33.8952 21.7828V13.0931H36.1409C37.417 13.0931 38.6568 13.5211 39.665 14.3095C40.6732 15.0979 41.3924 16.2019 41.7093 17.4476L45.3921 31.9209V32.4036H31.979V35.3002C31.979 38.1968 31.979 40.1278 30.5419 43.0244C30.5419 43.0244 29.1048 45.921 27.1887 45.921M12.5301 9.23103C12.5301 9.23103 9.46422 7.29998 9.46422 4.88617C9.46422 3.99094 9.8171 3.13238 10.4452 2.49935C11.0734 1.86633 11.9253 1.5107 12.8137 1.5107C13.702 1.5107 14.5539 1.86633 15.1821 2.49935C15.8102 3.13238 16.1631 3.99094 16.1631 4.88617C16.1631 7.29998 13.1049 9.23103 13.1049 9.23103H12.5301ZM34.1826 9.23103C34.1826 9.23103 37.2485 7.29998 37.2485 4.88617C37.2485 3.98992 36.8952 3.13037 36.2663 2.49662C35.6375 1.86287 34.7845 1.50684 33.8952 1.50684C32.0442 1.50684 30.5496 3.02078 30.5496 4.88617C30.5496 7.29998 33.6078 9.23103 33.6078 9.23103H34.1826Z" stroke="white" stroke-width="1.88054"/>
</svg>
