<svg width="51" height="41" viewBox="0 0 51 41" fill="none" xmlns="http://www.w3.org/2000/svg">
<path d="M49.0795 25.4396C48.4876 24.9795 47.7983 24.6637 47.0654 24.517C46.3326 24.3702 45.576 24.3964 44.8549 24.5935L35.0787 26.8615C35.3992 26.0035 35.5087 25.0797 35.3977 24.1696C35.2868 23.2594 34.9588 22.39 34.4419 21.6358C33.9249 20.8817 33.2345 20.2653 32.4297 19.8396C31.6249 19.4138 30.7298 19.1915 29.8211 19.1915H19.0034C18.1517 19.189 17.3081 19.3572 16.5213 19.6863C15.7345 20.0153 15.0203 20.4987 14.42 21.1085L9.40446 26.1702H3.02533C2.22296 26.1702 1.45346 26.4919 0.886099 27.0645C0.318739 27.6371 0 28.4136 0 29.2234V37.9468C0 38.7566 0.318739 39.5332 0.886099 40.1057C1.45346 40.6783 2.22296 41 3.02533 41H25.4992C25.6056 41 25.7115 40.9868 25.8147 40.9607L39.6448 37.4714C39.7103 37.4538 39.7745 37.432 39.8371 37.406L48.2259 33.8032L48.2973 33.7705C49.039 33.3967 49.6742 32.8384 50.143 32.1484C50.6119 31.4584 50.899 30.6592 50.9772 29.8263C51.0555 28.9933 50.9224 28.1539 50.5903 27.3873C50.2583 26.6206 49.7384 25.9518 49.0795 25.444V25.4396ZM2.59314 37.9468V29.2234C2.59314 29.1077 2.63868 28.9968 2.71973 28.915C2.80078 28.8332 2.91071 28.7872 3.02533 28.7872H8.6438V38.383H3.02533C2.91071 38.383 2.80078 38.337 2.71973 38.2552C2.63868 38.1734 2.59314 38.0625 2.59314 37.9468ZM47.1692 31.4043L38.9144 34.9525L25.3393 38.383H11.2369V28.0218L16.2525 22.9578C16.6129 22.5922 17.0417 22.3023 17.5139 22.105C17.9861 21.9077 18.4923 21.807 19.0034 21.8085H29.8211C30.6235 21.8085 31.393 22.1302 31.9604 22.7028C32.5277 23.2754 32.8465 24.0519 32.8465 24.8617C32.8465 25.6715 32.5277 26.448 31.9604 27.0206C31.393 27.5932 30.6235 27.9149 29.8211 27.9149H23.7705C23.4266 27.9149 23.0968 28.0528 22.8536 28.2981C22.6105 28.5435 22.4739 28.8764 22.4739 29.2234C22.4739 29.5704 22.6105 29.9033 22.8536 30.1487C23.0968 30.3941 23.4266 30.5319 23.7705 30.5319H30.6855C30.7829 30.532 30.8801 30.5211 30.9751 30.4992L45.4534 27.1385L45.5053 27.1254C46.0502 26.9755 46.6309 27.034 47.1356 27.2898C47.6404 27.5456 48.0337 27.9806 48.2401 28.5112C48.4464 29.0418 48.4512 29.6307 48.2536 30.1647C48.0559 30.6987 47.6698 31.1401 47.1692 31.4043ZM35.0074 14.8298C35.5363 14.8295 36.0636 14.7725 36.5806 14.6597C36.9694 16.0534 37.7541 17.3016 38.8377 18.2505C39.9214 19.1994 41.2566 19.8073 42.6786 19.9993C44.1006 20.1913 45.5471 19.9589 46.8398 19.3308C48.1325 18.7028 49.2147 17.7065 49.9528 16.465C50.691 15.2235 51.0529 13.791 50.9938 12.3444C50.9347 10.8977 50.4572 9.50021 49.6202 8.32424C48.7833 7.14826 47.6235 6.2453 46.284 5.72678C44.9445 5.20826 43.4839 5.09686 42.0824 5.40633C41.712 4.07801 40.9817 2.88034 39.9736 1.94808C38.9655 1.01582 37.7196 0.385948 36.3761 0.129338C35.0326 -0.127272 33.6449 -0.000441754 32.3689 0.495559C31.093 0.991559 29.9795 1.83705 29.1537 2.93691C28.328 4.03677 27.8227 5.34735 27.6948 6.72122C27.5669 8.09508 27.8214 9.47772 28.4297 10.7136C29.038 11.9494 29.9759 12.9894 31.1379 13.7166C32.3 14.4438 33.6401 14.8293 35.0074 14.8298ZM48.4053 12.6489C48.4053 13.5979 48.1265 14.5255 47.6041 15.3145C47.0817 16.1035 46.3392 16.7185 45.4705 17.0816C44.6018 17.4447 43.6459 17.5397 42.7237 17.3546C41.8015 17.1695 40.9544 16.7125 40.2896 16.0415C39.6247 15.3706 39.1719 14.5157 38.9885 13.585C38.805 12.6543 38.8992 11.6896 39.259 10.8129C39.6188 9.93617 40.2282 9.18685 41.01 8.65965C41.7918 8.13246 42.7109 7.85107 43.6512 7.85107C44.9121 7.85107 46.1213 8.35655 47.0129 9.25633C47.9044 10.1561 48.4053 11.3765 48.4053 12.6489ZM35.0074 2.61702C36.0988 2.61572 37.1573 2.99448 38.0041 3.68938C38.8509 4.38427 39.4342 5.35275 39.6556 6.43133C38.7158 7.04637 37.9277 7.87014 37.3517 8.83967C36.7756 9.80919 36.4269 10.8988 36.3321 12.0252C35.6785 12.2152 34.9922 12.2615 34.3194 12.161C33.6466 12.0605 33.0031 11.8154 32.4322 11.4424C31.8613 11.0693 31.3763 10.577 31.01 9.99869C30.6438 9.42034 30.4047 8.76942 30.309 8.08986C30.2134 7.41031 30.2633 6.71795 30.4554 6.05952C30.6475 5.4011 30.9774 4.79194 31.4228 4.27318C31.8681 3.75442 32.4186 3.33813 33.037 3.05243C33.6553 2.76672 34.3273 2.61824 35.0074 2.61702Z" fill="white"/>
</svg>
