<svg width="48" height="49" viewBox="0 0 48 49" fill="none" xmlns="http://www.w3.org/2000/svg">
<path d="M42.7946 0V17.7731H44.7466V0H42.7946ZM40.8426 1.39923L30.7138 5.17037L40.8426 8.94043V1.39923ZM13.1783 7.64784C12.636 7.64784 12.0721 7.89558 11.519 8.40185C10.8467 9.0266 10.2719 10.0284 10.0225 11.2348C9.77308 12.452 9.91406 13.6045 10.2936 14.4339C10.6732 15.2741 11.2262 15.7588 11.8769 15.8881C12.5276 16.0281 13.2216 15.7912 13.9048 15.1772C14.5664 14.5524 15.152 13.5507 15.4014 12.3335C15.64 11.1163 15.499 9.96373 15.1303 9.13432C14.7507 8.29413 14.1976 7.82018 13.547 7.68015C13.4277 7.65861 13.2975 7.64784 13.1783 7.64784ZM9.01396 16.1035C8.64525 16.2328 8.26569 16.3728 7.8536 16.5452C5.15874 18.2363 3.27721 19.9059 1.36424 22.545C0.150739 24.2146 0.0910939 27.069 0 29.1695L2.25566 30.1605C2.35001 27.166 2.2947 25.9272 3.69473 24.2038C4.76074 22.8896 5.79097 21.5109 7.76684 21.0908C7.94035 24.2038 7.48489 29.0295 6.24861 33.9736C8.47174 34.2752 10.3261 33.8982 12.43 33.295C17.9282 30.5698 20.4658 32.8857 24.283 38.2176L26.5062 34.7599C23.8384 31.647 21.2466 26.6705 13.7964 28.5878C14.3386 25.6472 14.4037 23.6975 14.729 20.7676C14.7941 19.475 14.8158 18.1932 14.8483 16.9222C13.8832 17.6547 12.6903 18.0424 11.4865 17.7947C10.4563 17.5792 9.61041 16.9437 9.01396 16.1035ZM24.6518 16.8899C22.6781 18.8072 22.2443 20.2291 19.2078 21.0262L16.7678 18.441C16.7244 19.8197 16.681 21.2308 16.5617 22.6634C17.592 23.6006 18.6439 24.3546 19.0235 24.2361C22.4178 23.2236 23.3938 22.0495 25.682 19.7228L24.6518 16.8899ZM39.5413 19.712V30.0528H29.1305V40.3935H18.7198V48.8061C29.8137 48.8277 36.9169 48.9246 48 49V19.712H39.5413ZM10.4454 35.7509C8.97058 36.0202 7.43066 36.1064 5.73458 35.8479C4.55361 39.8872 2.83259 43.8512 0.473905 46.8888L4.66314 48.5368C7.59333 44.4544 8.65609 40.9321 10.4454 35.7509Z" fill="white"/>
</svg>
