<svg width="49" height="49" viewBox="0 0 49 49" fill="none" xmlns="http://www.w3.org/2000/svg">
<g clip-path="url(#clip0_1534_177)">
<path d="M45.8831 23.5332L25.4664 3.1165C25.2114 2.863 24.8664 2.7207 24.5068 2.7207C24.1472 2.7207 23.8023 2.863 23.5472 3.1165L3.13057 23.5332C2.90759 23.7936 2.79107 24.1285 2.8043 24.471C2.81753 24.8136 2.95954 25.1386 3.20194 25.381C3.44435 25.6234 3.7693 25.7654 4.11186 25.7786C4.45442 25.7918 4.78936 25.6753 5.04974 25.4523L24.5 6.00206L43.9503 25.4659C44.2107 25.6889 44.5456 25.8055 44.8882 25.7922C45.2307 25.779 45.5557 25.637 45.7981 25.3946C46.0405 25.1522 46.1825 24.8272 46.1957 24.4847C46.209 24.1421 46.0924 23.8072 45.8695 23.5468L45.8831 23.5332Z" fill="white"/>
<path d="M38.1111 43.5551H31.3056V29.944H17.6945V43.5551H10.8889V24.4995L8.16669 27.2217V43.5551C8.16669 44.2771 8.45349 44.9695 8.96401 45.48C9.47452 45.9905 10.1669 46.2773 10.8889 46.2773H20.4167V32.6662H28.5834V46.2773H38.1111C38.8331 46.2773 39.5255 45.9905 40.036 45.48C40.5466 44.9695 40.8334 44.2771 40.8334 43.5551V26.8951L38.1111 24.1729V43.5551Z" fill="white"/>
</g>
<defs>
<clipPath id="clip0_1534_177">
<rect width="49" height="49" fill="white"/>
</clipPath>
</defs>
</svg>
