<svg width="15" height="10" viewBox="0 0 15 10" fill="none" xmlns="http://www.w3.org/2000/svg">
<path d="M13.6441 0.992302L7.33026 7.68038L1.01639 0.992302C0.903584 0.872566 0.752148 0.805534 0.594457 0.805534C0.436765 0.805534 0.28533 0.872566 0.172522 0.992302C0.1179 1.05046 0.0745065 1.11987 0.0448826 1.19648C0.0152587 1.27309 0 1.35535 0 1.43845C0 1.52154 0.0152587 1.60381 0.0448826 1.68041C0.0745065 1.75702 0.1179 1.82644 0.172522 1.88459L6.88938 9.00097C7.00734 9.12591 7.16554 9.19584 7.33026 9.19584C7.49499 9.19584 7.65319 9.12591 7.77115 9.00097L14.488 1.88597C14.543 1.82777 14.5867 1.75818 14.6166 1.68132C14.6464 1.60446 14.6618 1.52188 14.6618 1.43845C14.6618 1.35502 14.6464 1.27244 14.6166 1.19558C14.5867 1.11871 14.543 1.04913 14.488 0.990928C14.3752 0.871193 14.2238 0.804161 14.0661 0.804161C13.9084 0.804161 13.7569 0.871193 13.6441 0.990928V0.992302Z" fill="#0D4949" fill-opacity="0.6"/>
</svg>
