<svg width="15" height="10" viewBox="0 0 15 10" fill="none" xmlns="http://www.w3.org/2000/svg">
<path d="M13.6441 9.00766L7.33026 2.31958L1.01639 9.00766C0.903584 9.1274 0.752148 9.19443 0.594457 9.19443C0.436765 9.19443 0.28533 9.1274 0.172522 9.00766C0.1179 8.9495 0.0745065 8.88009 0.0448826 8.80348C0.0152587 8.72687 0 8.64461 0 8.56151C0 8.47842 0.0152587 8.39616 0.0448826 8.31955C0.0745065 8.24294 0.1179 8.17352 0.172522 8.11537L6.88938 0.998989C7.00734 0.874049 7.16554 0.804124 7.33026 0.804124C7.49499 0.804124 7.65319 0.874049 7.77115 0.998989L14.488 8.11399C14.543 8.17219 14.5867 8.24178 14.6166 8.31864C14.6464 8.3955 14.6618 8.47809 14.6618 8.56151C14.6618 8.64494 14.6464 8.72752 14.6166 8.80439C14.5867 8.88125 14.543 8.95083 14.488 9.00903C14.3752 9.12877 14.2238 9.1958 14.0661 9.1958C13.9084 9.1958 13.7569 9.12877 13.6441 9.00903V9.00766Z" fill="#0D4949" fill-opacity="0.6"/>
</svg>
