<svg width="19" height="18" viewBox="0 0 19 18" fill="none" xmlns="http://www.w3.org/2000/svg">
<path d="M14.1665 6C14.1665 4.80653 13.6924 3.66193 12.8485 2.81802C12.0046 1.97411 10.86 1.5 9.6665 1.5C8.47303 1.5 7.32844 1.97411 6.48452 2.81802C5.64061 3.66193 5.1665 4.80653 5.1665 6C5.1665 11.25 2.9165 12.75 2.9165 12.75H16.4165C16.4165 12.75 14.1665 11.25 14.1665 6Z" stroke="#0D4949" stroke-linecap="round" stroke-linejoin="round"/>
<path d="M10.9641 15.75C10.8323 15.9773 10.643 16.166 10.4153 16.2971C10.1876 16.4283 9.92942 16.4973 9.66664 16.4973C9.40386 16.4973 9.14568 16.4283 8.91797 16.2971C8.69026 16.166 8.501 15.9773 8.36914 15.75" stroke="#0D4949" stroke-linecap="round" stroke-linejoin="round"/>
</svg>
