<svg width="16" height="14" viewBox="0 0 16 14" fill="none" xmlns="http://www.w3.org/2000/svg">
<path d="M4.80475 5.0002C5.49071 5.0002 6.14857 4.73679 6.63362 4.26793C7.11866 3.79907 7.39116 3.16317 7.39116 2.5001C7.39116 1.83703 7.11866 1.20112 6.63362 0.732262C6.14857 0.263402 5.49071 0 4.80475 0C4.11879 0 3.46093 0.263402 2.97589 0.732262C2.49084 1.20112 2.21835 1.83703 2.21835 2.5001C2.21835 3.16317 2.49084 3.79907 2.97589 4.26793C3.46093 4.73679 4.11879 5.0002 4.80475 5.0002ZM13.0812 3.00012C13.0812 3.53057 12.8633 4.0393 12.4752 4.41439C12.0872 4.78947 11.5609 5.0002 11.0121 5.0002C10.4634 5.0002 9.93707 4.78947 9.54903 4.41439C9.161 4.0393 8.943 3.53057 8.943 3.00012C8.943 2.46966 9.161 1.96094 9.54903 1.58585C9.93707 1.21076 10.4634 1.00004 11.0121 1.00004C11.5609 1.00004 12.0872 1.21076 12.4752 1.58585C12.8633 1.96094 13.0812 2.46966 13.0812 3.00012ZM7.39116 6.00024C7.80273 6.00024 8.19745 6.15828 8.48848 6.43959C8.7795 6.72091 8.943 7.10245 8.943 7.50029V7.5943C8.93369 7.84431 8.7485 10.5004 4.80475 10.5004C0.666504 10.5004 0.666504 7.5753 0.666504 7.5753V7.50029C0.666504 7.10245 0.830001 6.72091 1.12103 6.43959C1.41206 6.15828 1.80677 6.00024 2.21835 6.00024H7.39116ZM12.1336 6.58126L12.4264 5.83123C12.6933 5.1512 13.5251 4.81519 14.2265 5.1042L14.6279 5.27021C15.1173 5.47221 15.5228 5.83823 15.6076 6.33025C16.0804 9.05536 13.6337 12.9315 10.8176 13.9205C10.3086 14.0986 9.75927 13.9605 9.32268 13.6745L8.96473 13.4395C8.81776 13.3438 8.69403 13.2185 8.60205 13.0721C8.51008 12.9257 8.45206 12.7617 8.43199 12.5916C8.41193 12.4214 8.4303 12.249 8.48584 12.0864C8.54137 11.9237 8.63275 11.7747 8.75368 11.6495L9.31751 11.0424C9.44969 10.9011 9.61864 10.7966 9.80677 10.7398C9.9949 10.683 10.1953 10.6759 10.3872 10.7194L11.6546 11.0094C12.6591 10.4024 13.1982 9.54937 13.2706 8.44933L12.3622 7.5893C12.2262 7.46135 12.1321 7.29764 12.0914 7.11844C12.0508 6.93925 12.0654 6.75247 12.1336 6.58126Z" fill="#0D4949"/>
</svg>
