<svg width="18" height="18" viewBox="0 0 18 18" fill="none" xmlns="http://www.w3.org/2000/svg">
<path d="M7.604 9.31344L6.22807 7.9375L5.479 8.68656L7.604 10.8116L11.854 6.56156L11.1049 5.8125L7.604 9.31344Z" fill="#0D4949"/>
<path d="M8.66651 16.4375L5.38551 14.6881C4.45015 14.1905 3.66796 13.4475 3.12287 12.539C2.57778 11.6305 2.29038 10.5907 2.29151 9.53125V2.625C2.29179 2.34329 2.40382 2.07321 2.60302 1.87401C2.80221 1.67481 3.0723 1.56278 3.35401 1.5625H13.979C14.2607 1.56278 14.5308 1.67481 14.73 1.87401C14.9292 2.07321 15.0412 2.34329 15.0415 2.625V9.53125C15.0426 10.5907 14.7552 11.6305 14.2101 12.539C13.6651 13.4475 12.8829 14.1905 11.9475 14.6881L8.66651 16.4375ZM3.35401 2.625V9.53125C3.35313 10.3981 3.58834 11.2489 4.03441 11.9922C4.48048 12.7356 5.12056 13.3434 5.88594 13.7504L8.66651 15.2332L11.4471 13.751C12.2125 13.3439 12.8527 12.736 13.2987 11.9925C13.7448 11.2491 13.98 10.3982 13.979 9.53125V2.625H3.35401Z" fill="#0D4949"/>
</svg>
