<svg width="17" height="17" viewBox="0 0 17 17" fill="none" xmlns="http://www.w3.org/2000/svg">
<path d="M10.0938 5.3125H13.8125V6.375H10.0938V5.3125ZM10.0938 7.96875H13.8125V9.03125H10.0938V7.96875ZM10.0938 10.625H13.8125V11.6875H10.0938V10.625ZM3.1875 5.3125H6.90625V6.375H3.1875V5.3125ZM3.1875 7.96875H6.90625V9.03125H3.1875V7.96875ZM3.1875 10.625H6.90625V11.6875H3.1875V10.625Z" fill="#0D4949"/>
<path d="M14.875 2.65625H2.125C1.84329 2.65653 1.57321 2.76856 1.37401 2.96776C1.17481 3.16696 1.06278 3.43704 1.0625 3.71875V13.2812C1.06278 13.563 1.17481 13.833 1.37401 14.0322C1.57321 14.2314 1.84329 14.3435 2.125 14.3438H14.875C15.1567 14.3435 15.4268 14.2314 15.626 14.0322C15.8252 13.833 15.9372 13.563 15.9375 13.2812V3.71875C15.9372 3.43704 15.8252 3.16696 15.626 2.96776C15.4268 2.76856 15.1567 2.65653 14.875 2.65625ZM2.125 3.71875H7.96875V13.2812H2.125V3.71875ZM9.03125 13.2812V3.71875H14.875V13.2812H9.03125Z" fill="#0D4949"/>
</svg>
