<svg width="468" height="473" viewBox="0 0 468 473" fill="none" xmlns="http://www.w3.org/2000/svg">
<path d="M65.7111 395.178C27.4079 352.834 3.9762 296.038 3.9762 233.607C3.9762 227.042 4.23521 220.539 4.74386 214.109" stroke="#0D4949" stroke-width="3.0292" stroke-miterlimit="10"/>
<path d="M68.2004 392.587C69.4978 394.047 69.4005 396.316 67.9824 397.652C66.5643 398.988 64.3609 398.888 63.0635 397.426C61.7661 395.965 61.8634 393.697 63.2827 392.361C64.6996 391.025 66.9018 391.127 68.2004 392.587Z" fill="#0D4949"/>
<path d="M9.4236 214.708C9.6158 212.076 7.69959 209.781 5.14346 209.583C2.58734 209.385 0.358201 211.358 0.165994 213.99C-0.0262135 216.622 1.89 218.918 4.44613 219.115C7.00225 219.313 9.23022 217.34 9.4236 214.708Z" fill="#0D4949"/>
<path d="M316.994 454.956C291.316 465.138 263.42 470.72 234.257 470.72C195.984 470.72 159.891 461.105 128.134 444.095" stroke="#0D4949" stroke-width="3.0292" stroke-miterlimit="10"/>
<path d="M315.589 451.61C317.389 450.915 319.395 451.855 320.071 453.709C320.746 455.563 319.833 457.629 318.032 458.324C316.232 459.019 314.226 458.079 313.551 456.225C312.876 454.372 313.789 452.306 315.589 451.61Z" fill="#0D4949"/>
<path d="M130.479 439.851C128.191 438.66 125.398 439.603 124.242 441.958C123.084 444.314 124 447.19 126.288 448.381C128.576 449.572 131.369 448.629 132.525 446.274C133.682 443.919 132.766 441.043 130.479 439.851Z" fill="#0D4949"/>
<path d="M464.435 226.429C464.504 228.812 464.538 231.203 464.538 233.603C464.538 309.451 429.953 376.981 376.133 420.385" stroke="#0D4949" stroke-width="3.0292" stroke-miterlimit="10"/>
<path d="M460.908 226.687C460.866 224.708 462.391 223.068 464.313 223.024C466.235 222.981 467.828 224.551 467.87 226.53C467.912 228.509 466.387 230.149 464.465 230.193C462.543 230.235 460.951 228.666 460.908 226.687Z" fill="#0D4949"/>
<path d="M373.368 416.433C371.366 418.08 371.037 421.088 372.637 423.15C374.236 425.212 377.158 425.55 379.16 423.904C381.163 422.258 381.492 419.25 379.892 417.187C378.293 415.124 375.371 414.786 373.368 416.433Z" fill="#0D4949"/>
<path d="M290.785 3.68431C362.319 22.2736 420.536 75.3285 447.802 144.693" stroke="#0D4949" stroke-width="3.0292" stroke-miterlimit="10"/>
<path d="M290.025 7.27017C288.169 6.75367 287.071 4.78541 287.574 2.87387C288.075 0.963534 289.987 -0.168431 291.843 0.349279C293.699 0.865781 294.798 2.83404 294.295 4.74559C293.792 6.65592 291.881 7.78547 290.025 7.27017Z" fill="#0D4949"/>
<path d="M443.345 146.355C444.334 148.79 447.053 149.939 449.418 148.921C451.783 147.902 452.899 145.102 451.91 142.667C450.921 140.232 448.202 139.083 445.836 140.101C443.471 141.12 442.356 143.92 443.345 146.355Z" fill="#0D4949"/>
</svg>
