<svg width="453" height="473" viewBox="0 0 453 473" fill="none" xmlns="http://www.w3.org/2000/svg">
<path d="M66.3868 395.458C28.0836 353.113 4.65186 296.317 4.65186 233.886C4.65186 227.322 4.91087 220.818 5.41952 214.388" stroke="#0D4949" stroke-width="3.0292" stroke-miterlimit="10"/>
<path d="M68.876 392.866C70.1734 394.327 70.0761 396.595 68.658 397.931C67.2399 399.267 65.0366 399.167 63.7392 397.705C62.4418 396.244 62.539 393.977 63.9583 392.641C65.3753 391.305 67.5775 391.406 68.876 392.866Z" fill="#0D4949"/>
<path d="M10.0993 214.988C10.2915 212.356 8.37525 210.06 5.81912 209.862C3.263 209.664 1.03386 211.637 0.841653 214.269C0.649446 216.901 2.56566 219.197 5.12178 219.395C7.67791 219.593 9.90588 217.619 10.0993 214.988Z" fill="#0D4949"/>
<path d="M317.67 455.235C291.991 465.418 264.095 470.999 234.933 470.999C196.66 470.999 160.567 461.385 128.81 444.374" stroke="#0D4949" stroke-width="3.0292" stroke-miterlimit="10"/>
<path d="M316.265 451.89C318.065 451.195 320.071 452.135 320.746 453.989C321.421 455.842 320.508 457.908 318.708 458.603C316.908 459.299 314.901 458.358 314.226 456.505C313.551 454.651 314.464 452.585 316.265 451.89Z" fill="#0D4949"/>
<path d="M131.155 440.131C128.867 438.94 126.074 439.882 124.917 442.238C123.759 444.594 124.676 447.469 126.964 448.66C129.251 449.851 132.044 448.909 133.201 446.553C134.358 444.199 133.441 441.323 131.155 440.131Z" fill="#0D4949"/>
<path d="M291.46 3.96344C362.994 22.5527 421.212 75.6077 448.477 144.972" stroke="#0D4949" stroke-width="3.0292" stroke-miterlimit="10"/>
<path d="M290.701 7.54927C288.844 7.03277 287.746 5.06451 288.249 3.15297C288.751 1.24263 290.662 0.110668 292.519 0.628377C294.374 1.14488 295.473 3.11314 294.97 5.02469C294.468 6.93502 292.556 8.06457 290.701 7.54927Z" fill="#0D4949"/>
<path d="M444.02 146.634C445.009 149.069 447.728 150.218 450.093 149.2C452.458 148.181 453.574 145.381 452.585 142.946C451.596 140.511 448.877 139.362 446.512 140.38C444.147 141.399 443.031 144.199 444.02 146.634Z" fill="#0D4949"/>
</svg>
