<svg width="25" height="24" viewBox="0 0 25 24" fill="none" xmlns="http://www.w3.org/2000/svg">
<path d="M18.7489 3C18.8716 2.99991 18.9926 3.02757 19.1021 3.08074C19.2116 3.1339 19.3065 3.21107 19.3791 3.306L19.4364 3.393L22.8354 9.421L22.875 9.514L22.8875 9.554L22.9083 9.656L22.9146 9.75C22.9146 9.81758 22.9052 9.88485 22.8864 9.95L22.8375 10.075L22.7979 10.144C22.7849 10.1639 22.771 10.1833 22.7562 10.202C22.7447 10.2171 22.7325 10.2318 22.7198 10.246L22.7396 10.221L21.4125 11.667C20.9631 11.3529 20.4445 11.1422 19.8969 11.051L20.4031 10.5H17.3041L13.2291 20.523C13.1718 20.6638 13.0715 20.7847 12.9414 20.8698C12.8113 20.9549 12.6574 21.0003 12.5 21H12.4969C12.4645 21 12.4321 20.998 12.4 20.994H12.3958L12.3906 20.993C12.3543 20.9878 12.3185 20.9801 12.2833 20.97L12.2729 20.968C12.2092 20.9505 12.1483 20.9249 12.0916 20.892L12.0823 20.885C12.0328 20.8558 11.9873 20.8209 11.9469 20.781L2.26977 10.235L2.24269 10.203L2.20102 10.144C2.142 10.0525 2.10433 9.94981 2.0906 9.843L2.08331 9.75L2.08644 9.684L2.09998 9.595C2.10647 9.56587 2.11482 9.53715 2.12498 9.509L2.1479 9.45L2.17706 9.393L5.56248 3.393C5.62085 3.28946 5.70378 3.20056 5.80458 3.1335C5.90538 3.06644 6.0212 3.02311 6.14269 3.007L6.24894 3H18.7489ZM15.6271 10.5H9.3729L12.4979 18.187L12.5 18.184V18.188L15.6271 10.5ZM7.69685 10.5H4.59269L10.1666 16.574L7.69685 10.5ZM9.34477 4.5H6.71352L4.17394 9H7.84477L9.34477 4.5ZM14.0114 4.5H10.9854L9.48435 9H15.5104L14.0104 4.5H14.0114ZM18.2823 4.5H15.6521L17.1521 9H20.8208L18.2823 4.5ZM21.875 14.5C21.875 15.163 21.6006 15.7989 21.1122 16.2678C20.6239 16.7366 19.9615 17 19.2708 17C18.5801 17 17.9178 16.7366 17.4294 16.2678C16.941 15.7989 16.6666 15.163 16.6666 14.5C16.6666 13.837 16.941 13.2011 17.4294 12.7322C17.9178 12.2634 18.5801 12 19.2708 12C19.9615 12 20.6239 12.2634 21.1122 12.7322C21.6006 13.2011 21.875 13.837 21.875 14.5ZM23.9583 19.875C23.9583 21.431 22.6187 23 19.2708 23C15.9229 23 14.5833 21.437 14.5833 19.875V19.772C14.5833 18.792 15.4104 18 16.4302 18H22.1114C23.1323 18 23.9583 18.793 23.9583 19.772V19.875Z" fill="#0D4949"/>
</svg>
