<svg width="25" height="26" viewBox="0 0 25 26" fill="none" xmlns="http://www.w3.org/2000/svg">
<path d="M19.7917 3.625H5.20833C4.0625 3.625 3.125 4.5625 3.125 5.70833V20.2917C3.125 21.4375 4.0625 22.375 5.20833 22.375H19.7917C20.9375 22.375 21.875 21.4375 21.875 20.2917V5.70833C21.875 4.5625 20.9375 3.625 19.7917 3.625ZM19.7917 20.2917H5.20833V5.70833H19.7917V20.2917Z" fill="#0D4949"/>
<path d="M7.29169 13H9.37502V18.2083H7.29169V13ZM15.625 7.79167H17.7084V18.2083H15.625V7.79167ZM11.4584 15.0833H13.5417V18.2083H11.4584V15.0833ZM11.4584 10.9167H13.5417V13H11.4584V10.9167Z" fill="#0D4949"/>
</svg>
