<svg width="26" height="26" viewBox="0 0 26 26" fill="none" xmlns="http://www.w3.org/2000/svg">
<path d="M4.33331 19.5C4.33331 18.3507 4.78986 17.2485 5.60252 16.4359C6.41517 15.6232 7.51737 15.1667 8.66665 15.1667H17.3333C18.4826 15.1667 19.5848 15.6232 20.3974 16.4359C21.2101 17.2485 21.6666 18.3507 21.6666 19.5C21.6666 20.0746 21.4384 20.6257 21.032 21.0321C20.6257 21.4384 20.0746 21.6667 19.5 21.6667H6.49998C5.92534 21.6667 5.37424 21.4384 4.96791 21.0321C4.56159 20.6257 4.33331 20.0746 4.33331 19.5Z" stroke="#0D4949" stroke-width="2" stroke-linejoin="round"/>
<path d="M13 10.8333C14.7949 10.8333 16.25 9.37826 16.25 7.58334C16.25 5.78841 14.7949 4.33334 13 4.33334C11.2051 4.33334 9.75 5.78841 9.75 7.58334C9.75 9.37826 11.2051 10.8333 13 10.8333Z" stroke="#0D4949" stroke-width="2"/>
</svg>
