<svg width="14" height="13" viewBox="0 0 14 13" fill="none" xmlns="http://www.w3.org/2000/svg">
<path d="M3.86237 4.50648C4.50259 4.50648 5.1166 4.26909 5.56931 3.84652C6.02201 3.42396 6.27634 2.85084 6.27634 2.25324C6.27634 1.65564 6.02201 1.08252 5.56931 0.659959C5.1166 0.237394 4.50259 0 3.86237 0C3.22214 0 2.60813 0.237394 2.15542 0.659959C1.70272 1.08252 1.44839 1.65564 1.44839 2.25324C1.44839 2.85084 1.70272 3.42396 2.15542 3.84652C2.60813 4.26909 3.22214 4.50648 3.86237 4.50648ZM11.5871 2.70389C11.5871 3.18196 11.3836 3.64046 11.0215 3.97851C10.6593 4.31656 10.1681 4.50648 9.65591 4.50648C9.14373 4.50648 8.65253 4.31656 8.29036 3.97851C7.92819 3.64046 7.72473 3.18196 7.72473 2.70389C7.72473 2.22581 7.92819 1.76731 8.29036 1.42926C8.65253 1.09121 9.14373 0.901296 9.65591 0.901296C10.1681 0.901296 10.6593 1.09121 11.0215 1.42926C11.3836 1.76731 11.5871 2.22581 11.5871 2.70389ZM6.27634 5.40778C6.66048 5.40778 7.02888 5.55021 7.30051 5.80375C7.57213 6.05729 7.72473 6.40116 7.72473 6.75972V6.84444C7.71604 7.06977 7.5432 9.46361 3.86237 9.46361C0 9.46361 0 6.82732 0 6.82732V6.75972C0 6.40116 0.152598 6.05729 0.424223 5.80375C0.695848 5.55021 1.06425 5.40778 1.44839 5.40778H6.27634ZM10.7026 5.93143L10.9759 5.25546C11.225 4.64258 12.0013 4.33974 12.656 4.60021L13.0307 4.74983C13.4874 4.93189 13.8659 5.26177 13.9451 5.7052C14.3863 8.16123 12.1027 11.6547 9.47438 12.546C8.99931 12.7065 8.48658 12.5821 8.0791 12.3243L7.74501 12.1125C7.60784 12.0263 7.49235 11.9133 7.40651 11.7813C7.32067 11.6494 7.26652 11.5016 7.24779 11.3483C7.22906 11.1949 7.24621 11.0396 7.29804 10.893C7.34988 10.7464 7.43517 10.612 7.54803 10.4992L8.07427 9.95211C8.19764 9.82473 8.35532 9.73055 8.53092 9.67935C8.70651 9.62815 8.89359 9.62181 9.0727 9.66099L10.2555 9.92237C11.1931 9.37528 11.6962 8.60647 11.7638 7.61505L10.916 6.83993C10.7891 6.72462 10.7012 6.57707 10.6632 6.41557C10.6253 6.25407 10.639 6.08573 10.7026 5.93143Z" fill="#17E093"/>
</svg>
