<svg width="46" height="45" viewBox="0 0 46 45" fill="none" xmlns="http://www.w3.org/2000/svg">
<ellipse cx="23" cy="22.5" rx="23" ry="22.5" fill="#17E093" fill-opacity="0.1"/>
<path d="M12 30.375C12 28.9826 12.5531 27.6473 13.5377 26.6627C14.5223 25.6781 15.8576 25.125 17.25 25.125H27.75C29.1424 25.125 30.4777 25.6781 31.4623 26.6627C32.4469 27.6473 33 28.9826 33 30.375C33 31.0712 32.7234 31.7389 32.2312 32.2312C31.7389 32.7234 31.0712 33 30.375 33H14.625C13.9288 33 13.2611 32.7234 12.7688 32.2312C12.2766 31.7389 12 31.0712 12 30.375Z" stroke="#0D4949" stroke-width="2.5" stroke-linejoin="round"/>
<path d="M22.5001 19.875C24.6747 19.875 26.4376 18.1121 26.4376 15.9375C26.4376 13.7629 24.6747 12 22.5001 12C20.3255 12 18.5626 13.7629 18.5626 15.9375C18.5626 18.1121 20.3255 19.875 22.5001 19.875Z" stroke="#0D4949" stroke-width="2.5"/>
</svg>
