<svg width="11" height="13" viewBox="0 0 11 13" fill="none" xmlns="http://www.w3.org/2000/svg">
<path d="M3.01225 8.18042C2.84156 8.18042 2.69837 8.12258 2.5827 8.00691C2.46703 7.89124 2.4094 7.74826 2.4098 7.57797C2.4098 7.40727 2.46764 7.26409 2.58331 7.14842C2.69898 7.03275 2.84196 6.97511 3.01225 6.97552C3.18294 6.97552 3.32613 7.03335 3.4418 7.14902C3.55747 7.26469 3.6151 7.40767 3.6147 7.57797C3.6147 7.74866 3.55686 7.89184 3.44119 8.00751C3.32552 8.12318 3.18254 8.18082 3.01225 8.18042ZM5.42205 8.18042C5.25136 8.18042 5.10817 8.12258 4.9925 8.00691C4.87683 7.89124 4.8192 7.74826 4.8196 7.57797C4.8196 7.40727 4.87744 7.26409 4.99311 7.14842C5.10878 7.03275 5.25176 6.97511 5.42205 6.97552C5.59274 6.97552 5.73593 7.03335 5.8516 7.14902C5.96727 7.26469 6.0249 7.40767 6.0245 7.57797C6.0245 7.74866 5.96666 7.89184 5.85099 8.00751C5.73532 8.12318 5.59234 8.18082 5.42205 8.18042ZM7.83185 8.18042C7.66115 8.18042 7.51797 8.12258 7.4023 8.00691C7.28663 7.89124 7.229 7.74826 7.2294 7.57797C7.2294 7.40727 7.28723 7.26409 7.4029 7.14842C7.51858 7.03275 7.66156 6.97511 7.83185 6.97552C8.00254 6.97552 8.14573 7.03335 8.2614 7.14902C8.37707 7.26469 8.4347 7.40767 8.4343 7.57797C8.4343 7.74866 8.37646 7.89184 8.26079 8.00751C8.14512 8.12318 8.00214 8.18082 7.83185 8.18042ZM1.2049 13C0.873553 13 0.589799 12.8819 0.353639 12.6458C0.117479 12.4096 -0.00040061 12.1261 1.02284e-06 11.7951V3.36082C1.02284e-06 3.02947 0.118081 2.74572 0.354242 2.50956C0.590402 2.2734 0.873955 2.15552 1.2049 2.15592H1.80735V0.951019H3.01225V2.15592H7.83185V0.951019H9.03675V2.15592H9.6392C9.97055 2.15592 10.2543 2.274 10.4905 2.51016C10.7266 2.74632 10.8445 3.02987 10.8441 3.36082V11.7951C10.8441 12.1265 10.726 12.4102 10.4899 12.6464C10.2537 12.8825 9.97014 13.0004 9.6392 13H1.2049ZM1.2049 11.7951H9.6392V5.77062H1.2049V11.7951ZM1.2049 4.56572H9.6392V3.36082H1.2049V4.56572Z" fill="#0D4949"/>
</svg>
