<svg width="510" height="507" viewBox="0 0 510 507" fill="none" xmlns="http://www.w3.org/2000/svg">
<path d="M260.224 25.0459C258.475 25.0459 256.984 24.5697 255.753 23.6174C254.522 22.6573 253.581 21.2676 252.931 19.4481C252.281 17.6209 251.956 15.4143 251.956 12.8283C251.956 10.2578 252.281 8.06284 252.931 6.24337C253.589 4.41616 254.534 3.02252 255.765 2.06245C257.004 1.09465 258.49 0.610746 260.224 0.610746C261.959 0.610746 263.441 1.09465 264.672 2.06245C265.911 3.02252 266.856 4.41616 267.506 6.24337C268.164 8.06284 268.493 10.2578 268.493 12.8283C268.493 15.4143 268.168 17.6209 267.518 19.4481C266.867 21.2676 265.927 22.6573 264.696 23.6174C263.465 24.5697 261.974 25.0459 260.224 25.0459ZM260.224 22.4909C261.959 22.4909 263.306 21.6547 264.266 19.9823C265.226 18.31 265.706 15.9253 265.706 12.8283C265.706 10.7688 265.485 9.01516 265.044 7.56733C264.611 6.11949 263.983 5.01619 263.163 4.25744C262.35 3.49868 261.37 3.1193 260.224 3.1193C258.506 3.1193 257.162 3.96709 256.195 5.66269C255.227 7.35054 254.743 9.73908 254.743 12.8283C254.743 14.8878 254.96 16.6376 255.393 18.0777C255.827 19.5178 256.45 20.6133 257.263 21.3644C258.084 22.1154 259.071 22.4909 260.224 22.4909ZM281.268 0.935929V24.7207H278.388V3.95548H278.249L272.442 7.81121V4.88457L278.388 0.935929H281.268Z" fill="#0D4949"/>
<path d="M242.388 40.2218V32.0158H247.34V32.8973H243.381V35.67H247.084V36.5515H243.381V39.3403H247.404V40.2218H242.388ZM251.327 40.35C250.814 40.35 250.361 40.2205 249.969 39.9613C249.576 39.6996 249.269 39.3309 249.047 38.8555C248.825 38.3773 248.714 37.8123 248.714 37.1606C248.714 36.5141 248.825 35.9532 249.047 35.4777C249.269 35.0022 249.577 34.6349 249.973 34.3758C250.368 34.1167 250.825 33.9872 251.343 33.9872C251.744 33.9872 252.06 34.0539 252.292 34.1875C252.528 34.3184 252.707 34.468 252.829 34.6363C252.955 34.8019 253.052 34.9381 253.122 35.045H253.202V32.0158H254.148V40.2218H253.234V39.2762H253.122C253.052 39.3884 252.954 39.5299 252.825 39.7009C252.697 39.8692 252.514 40.0201 252.276 40.1537C252.039 40.2846 251.722 40.35 251.327 40.35ZM251.455 39.5006C251.834 39.5006 252.155 39.4017 252.417 39.2041C252.678 39.0037 252.877 38.7272 253.014 38.3746C253.15 38.0194 253.218 37.6093 253.218 37.1445C253.218 36.6851 253.151 36.2831 253.018 35.9385C252.884 35.5912 252.686 35.3214 252.425 35.1291C252.163 34.9341 251.84 34.8366 251.455 34.8366C251.054 34.8366 250.72 34.9395 250.453 35.1451C250.189 35.3481 249.99 35.6246 249.856 35.9745C249.725 36.3218 249.66 36.7118 249.66 37.1445C249.66 37.5826 249.727 37.9806 249.86 38.3386C249.997 38.6938 250.197 38.977 250.461 39.188C250.728 39.3964 251.06 39.5006 251.455 39.5006ZM259.889 37.7055V34.0673H260.835V40.2218H259.889V39.18H259.825C259.681 39.4925 259.457 39.7583 259.152 39.9774C258.848 40.1937 258.463 40.3019 257.998 40.3019C257.614 40.3019 257.272 40.2178 256.972 40.0495C256.673 39.8785 256.438 39.6221 256.267 39.2802C256.096 38.9356 256.011 38.5015 256.011 37.978V34.0673H256.956V37.9139C256.956 38.3626 257.082 38.7206 257.333 38.9877C257.587 39.2548 257.91 39.3884 258.303 39.3884C258.538 39.3884 258.777 39.3283 259.02 39.2081C259.266 39.0879 259.471 38.9035 259.637 38.6551C259.805 38.4067 259.889 38.0902 259.889 37.7055ZM265.067 40.35C264.49 40.35 263.993 40.2138 263.577 39.9413C263.16 39.6688 262.839 39.2935 262.615 38.8154C262.391 38.3372 262.279 37.791 262.279 37.1766C262.279 36.5515 262.393 35.9999 262.623 35.5218C262.855 35.041 263.179 34.6657 263.593 34.3959C264.009 34.1234 264.496 33.9872 265.051 33.9872C265.484 33.9872 265.874 34.0673 266.221 34.2276C266.568 34.3878 266.853 34.6122 267.075 34.9007C267.296 35.1892 267.434 35.5258 267.487 35.9104H266.542C266.47 35.63 266.309 35.3815 266.061 35.1652C265.815 34.9461 265.484 34.8366 265.067 34.8366C264.699 34.8366 264.375 34.9328 264.098 35.1251C263.822 35.3148 263.607 35.5832 263.453 35.9305C263.3 36.2751 263.224 36.6798 263.224 37.1445C263.224 37.62 263.299 38.0341 263.448 38.3867C263.601 38.7393 263.814 39.0131 264.09 39.2081C264.367 39.4031 264.693 39.5006 265.067 39.5006C265.313 39.5006 265.536 39.4578 265.736 39.3723C265.937 39.2869 266.106 39.164 266.245 39.0037C266.384 38.8434 266.483 38.6511 266.542 38.4267H267.487C267.434 38.79 267.302 39.1172 267.091 39.4084C266.882 39.6969 266.606 39.9266 266.261 40.0976C265.919 40.2659 265.521 40.35 265.067 40.35ZM270.681 40.366C270.291 40.366 269.937 40.2926 269.619 40.1457C269.301 39.9961 269.049 39.781 268.862 39.5006C268.675 39.2174 268.581 38.8755 268.581 38.4748C268.581 38.1222 268.651 37.8364 268.79 37.6173C268.929 37.3956 269.114 37.222 269.347 37.0965C269.579 36.9709 269.835 36.8774 270.116 36.816C270.399 36.7519 270.683 36.7011 270.969 36.6637C271.343 36.6156 271.646 36.5796 271.879 36.5555C272.114 36.5288 272.285 36.4848 272.392 36.4233C272.501 36.3619 272.556 36.255 272.556 36.1028V36.0707C272.556 35.6754 272.448 35.3682 272.231 35.1491C272.018 34.9301 271.693 34.8206 271.258 34.8206C270.806 34.8206 270.452 34.9194 270.196 35.1171C269.94 35.3148 269.759 35.5258 269.655 35.7502L268.758 35.4296C268.918 35.0557 269.132 34.7645 269.399 34.5561C269.668 34.3451 269.962 34.1982 270.28 34.1154C270.601 34.0299 270.916 33.9872 271.226 33.9872C271.423 33.9872 271.65 34.0112 271.907 34.0593C272.166 34.1047 272.416 34.1995 272.656 34.3438C272.899 34.488 273.101 34.7057 273.261 34.9969C273.421 35.288 273.502 35.678 273.502 36.1669V40.2218H272.556V39.3884H272.508C272.444 39.5219 272.337 39.6648 272.187 39.8171C272.038 39.9694 271.839 40.0989 271.59 40.2058C271.342 40.3126 271.039 40.366 270.681 40.366ZM270.825 39.5166C271.199 39.5166 271.514 39.4431 271.771 39.2962C272.03 39.1493 272.225 38.9596 272.356 38.7272C272.489 38.4948 272.556 38.2504 272.556 37.994V37.1285C272.516 37.1766 272.428 37.2207 272.292 37.2607C272.158 37.2981 272.003 37.3315 271.827 37.3609C271.653 37.3876 271.484 37.4117 271.318 37.433C271.155 37.4517 271.023 37.4678 270.921 37.4811C270.675 37.5132 270.446 37.5653 270.232 37.6374C270.021 37.7068 269.85 37.8123 269.719 37.9539C269.591 38.0928 269.527 38.2825 269.527 38.5229C269.527 38.8515 269.648 39.0999 269.891 39.2682C270.137 39.4338 270.448 39.5166 270.825 39.5166ZM277.904 34.0673V34.8687H274.715V34.0673H277.904ZM275.644 32.5928H276.59V38.4588C276.59 38.7259 276.629 38.9262 276.706 39.0598C276.786 39.1907 276.888 39.2788 277.011 39.3243C277.136 39.367 277.268 39.3884 277.407 39.3884C277.511 39.3884 277.597 39.383 277.664 39.3723C277.731 39.359 277.784 39.3483 277.824 39.3403L278.016 40.1897C277.952 40.2138 277.863 40.2378 277.748 40.2619C277.633 40.2886 277.487 40.3019 277.311 40.3019C277.044 40.3019 276.782 40.2445 276.526 40.1296C276.272 40.0148 276.061 39.8398 275.893 39.6047C275.727 39.3697 275.644 39.0732 275.644 38.7152V32.5928ZM279.327 40.2218V34.0673H280.272V40.2218H279.327ZM279.807 33.0416C279.623 33.0416 279.464 32.9788 279.331 32.8532C279.2 32.7277 279.134 32.5768 279.134 32.4005C279.134 32.2242 279.2 32.0732 279.331 31.9477C279.464 31.8221 279.623 31.7594 279.807 31.7594C279.992 31.7594 280.149 31.8221 280.28 31.9477C280.414 32.0732 280.481 32.2242 280.481 32.4005C280.481 32.5768 280.414 32.7277 280.28 32.8532C280.149 32.9788 279.992 33.0416 279.807 33.0416ZM284.504 40.35C283.949 40.35 283.461 40.2178 283.042 39.9533C282.625 39.6889 282.299 39.3189 282.064 38.8434C281.832 38.368 281.716 37.8123 281.716 37.1766C281.716 36.5355 281.832 35.9759 282.064 35.4977C282.299 35.0196 282.625 34.6483 283.042 34.3838C283.461 34.1194 283.949 33.9872 284.504 33.9872C285.06 33.9872 285.546 34.1194 285.963 34.3838C286.382 34.6483 286.708 35.0196 286.941 35.4977C287.176 35.9759 287.293 36.5355 287.293 37.1766C287.293 37.8123 287.176 38.368 286.941 38.8434C286.708 39.3189 286.382 39.6889 285.963 39.9533C285.546 40.2178 285.06 40.35 284.504 40.35ZM284.504 39.5006C284.926 39.5006 285.274 39.3924 285.546 39.176C285.819 38.9596 286.02 38.6752 286.151 38.3226C286.282 37.9699 286.348 37.588 286.348 37.1766C286.348 36.7652 286.282 36.3819 286.151 36.0266C286.02 35.6714 285.819 35.3842 285.546 35.1652C285.274 34.9461 284.926 34.8366 284.504 34.8366C284.082 34.8366 283.735 34.9461 283.463 35.1652C283.19 35.3842 282.988 35.6714 282.858 36.0266C282.727 36.3819 282.661 36.7652 282.661 37.1766C282.661 37.588 282.727 37.9699 282.858 38.3226C282.988 38.6752 283.19 38.9596 283.463 39.176C283.735 39.3924 284.082 39.5006 284.504 39.5006ZM289.682 36.5195V40.2218H288.737V34.0673H289.65V35.0289H289.73C289.875 34.7164 290.094 34.4653 290.387 34.2757C290.681 34.0833 291.061 33.9872 291.525 33.9872C291.942 33.9872 292.307 34.0726 292.619 34.2436C292.932 34.4119 293.175 34.6683 293.348 35.0129C293.522 35.3548 293.609 35.7876 293.609 36.3111V40.2218H292.663V36.3752C292.663 35.8917 292.538 35.5151 292.287 35.2453C292.036 34.9728 291.691 34.8366 291.253 34.8366C290.951 34.8366 290.681 34.9021 290.443 35.0329C290.208 35.1638 290.023 35.3548 289.887 35.6059C289.75 35.857 289.682 36.1615 289.682 36.5195Z" fill="#0D4949"/>
<path d="M479.368 219.995C477.618 219.995 476.128 219.519 474.897 218.567C473.666 217.607 472.725 216.217 472.075 214.398C471.424 212.57 471.099 210.364 471.099 207.778C471.099 205.207 471.424 203.012 472.075 201.193C472.733 199.366 473.677 197.972 474.908 197.012C476.147 196.044 477.634 195.56 479.368 195.56C481.102 195.56 482.585 196.044 483.816 197.012C485.055 197.972 485.999 199.366 486.65 201.193C487.308 203.012 487.637 205.207 487.637 207.778C487.637 210.364 487.312 212.57 486.661 214.398C486.011 216.217 485.07 217.607 483.839 218.567C482.608 219.519 481.118 219.995 479.368 219.995ZM479.368 217.44C481.102 217.44 482.45 216.604 483.41 214.932C484.37 213.259 484.85 210.875 484.85 207.778C484.85 205.718 484.629 203.965 484.188 202.517C483.754 201.069 483.127 199.966 482.306 199.207C481.493 198.448 480.514 198.069 479.368 198.069C477.649 198.069 476.306 198.916 475.338 200.612C474.37 202.3 473.886 204.688 473.886 207.778C473.886 209.837 474.103 211.587 474.537 213.027C474.97 214.467 475.594 215.563 476.407 216.314C477.227 217.065 478.214 217.44 479.368 217.44ZM492.05 219.67V217.58L499.901 208.986C500.822 207.979 501.581 207.104 502.177 206.361C502.773 205.61 503.215 204.905 503.501 204.247C503.795 203.581 503.943 202.884 503.943 202.157C503.943 201.321 503.741 200.597 503.339 199.985C502.944 199.373 502.402 198.901 501.713 198.568C501.024 198.235 500.249 198.069 499.39 198.069C498.476 198.069 497.679 198.258 496.998 198.638C496.324 199.009 495.801 199.532 495.43 200.206C495.066 200.879 494.884 201.669 494.884 202.575H492.143C492.143 201.181 492.464 199.958 493.107 198.905C493.75 197.852 494.625 197.031 495.732 196.443C496.847 195.854 498.097 195.56 499.483 195.56C500.877 195.56 502.112 195.854 503.188 196.443C504.264 197.031 505.108 197.825 505.719 198.824C506.331 199.822 506.637 200.933 506.637 202.157C506.637 203.032 506.478 203.887 506.161 204.723C505.851 205.552 505.309 206.477 504.535 207.499C503.768 208.513 502.704 209.752 501.341 211.215L495.999 216.929V217.115H507.055V219.67H492.05Z" fill="#0D4949"/>
<path d="M476.82 229.235H475.827C475.768 228.95 475.665 228.699 475.518 228.482C475.374 228.266 475.198 228.084 474.989 227.937C474.784 227.788 474.555 227.675 474.304 227.601C474.053 227.526 473.791 227.488 473.519 227.488C473.022 227.488 472.572 227.614 472.168 227.865C471.768 228.116 471.449 228.486 471.211 228.975C470.976 229.464 470.858 230.064 470.858 230.774C470.858 231.485 470.976 232.084 471.211 232.573C471.449 233.062 471.768 233.432 472.168 233.683C472.572 233.934 473.022 234.06 473.519 234.06C473.791 234.06 474.053 234.022 474.304 233.947C474.555 233.873 474.784 233.762 474.989 233.615C475.198 233.465 475.374 233.282 475.518 233.066C475.665 232.847 475.768 232.596 475.827 232.313H476.82C476.746 232.732 476.609 233.107 476.412 233.439C476.214 233.77 475.968 234.052 475.674 234.284C475.381 234.514 475.051 234.689 474.685 234.809C474.321 234.929 473.933 234.989 473.519 234.989C472.819 234.989 472.196 234.818 471.652 234.476C471.107 234.134 470.678 233.648 470.365 233.018C470.053 232.387 469.897 231.64 469.897 230.774C469.897 229.909 470.053 229.161 470.365 228.53C470.678 227.9 471.107 227.414 471.652 227.072C472.196 226.73 472.819 226.559 473.519 226.559C473.933 226.559 474.321 226.619 474.685 226.739C475.051 226.859 475.381 227.036 475.674 227.268C475.968 227.498 476.214 227.778 476.412 228.11C476.609 228.438 476.746 228.813 476.82 229.235ZM480.798 235.005C480.242 235.005 479.755 234.873 479.336 234.609C478.919 234.344 478.593 233.974 478.358 233.499C478.126 233.023 478.009 232.468 478.009 231.832C478.009 231.191 478.126 230.631 478.358 230.153C478.593 229.675 478.919 229.304 479.336 229.039C479.755 228.775 480.242 228.642 480.798 228.642C481.354 228.642 481.84 228.775 482.257 229.039C482.676 229.304 483.002 229.675 483.234 230.153C483.469 230.631 483.587 231.191 483.587 231.832C483.587 232.468 483.469 233.023 483.234 233.499C483.002 233.974 482.676 234.344 482.257 234.609C481.84 234.873 481.354 235.005 480.798 235.005ZM480.798 234.156C481.22 234.156 481.567 234.048 481.84 233.831C482.112 233.615 482.314 233.33 482.445 232.978C482.576 232.625 482.641 232.243 482.641 231.832C482.641 231.421 482.576 231.037 482.445 230.682C482.314 230.327 482.112 230.039 481.84 229.82C481.567 229.601 481.22 229.492 480.798 229.492C480.376 229.492 480.029 229.601 479.756 229.82C479.484 230.039 479.282 230.327 479.151 230.682C479.02 231.037 478.955 231.421 478.955 231.832C478.955 232.243 479.02 232.625 479.151 232.978C479.282 233.33 479.484 233.615 479.756 233.831C480.029 234.048 480.376 234.156 480.798 234.156ZM485.976 231.175V234.877H485.03V228.723H485.944V229.684H486.024C486.168 229.372 486.387 229.121 486.681 228.931C486.975 228.739 487.354 228.642 487.819 228.642C488.236 228.642 488.6 228.728 488.913 228.899C489.225 229.067 489.469 229.324 489.642 229.668C489.816 230.01 489.903 230.443 489.903 230.966V234.877H488.957V231.031C488.957 230.547 488.831 230.17 488.58 229.901C488.329 229.628 487.985 229.492 487.547 229.492C487.245 229.492 486.975 229.557 486.737 229.688C486.502 229.819 486.317 230.01 486.18 230.261C486.044 230.512 485.976 230.817 485.976 231.175ZM495.99 230.101L495.141 230.341C495.087 230.2 495.008 230.062 494.904 229.929C494.803 229.792 494.664 229.68 494.487 229.592C494.311 229.504 494.085 229.46 493.81 229.46C493.434 229.46 493.12 229.547 492.869 229.72C492.62 229.891 492.496 230.109 492.496 230.373C492.496 230.608 492.582 230.794 492.752 230.93C492.923 231.067 493.191 231.18 493.554 231.271L494.467 231.495C495.018 231.629 495.428 231.833 495.697 232.108C495.967 232.381 496.102 232.732 496.102 233.162C496.102 233.515 496.001 233.83 495.798 234.108C495.597 234.386 495.317 234.605 494.956 234.765C494.596 234.925 494.176 235.005 493.698 235.005C493.07 235.005 492.551 234.869 492.139 234.597C491.728 234.324 491.468 233.926 491.358 233.403L492.256 233.178C492.341 233.509 492.503 233.758 492.74 233.923C492.981 234.089 493.295 234.172 493.682 234.172C494.123 234.172 494.473 234.078 494.732 233.891C494.994 233.702 495.125 233.475 495.125 233.21C495.125 232.997 495.05 232.818 494.9 232.673C494.751 232.526 494.521 232.417 494.211 232.345L493.185 232.104C492.622 231.971 492.208 231.764 491.943 231.483C491.681 231.2 491.55 230.846 491.55 230.421C491.55 230.074 491.648 229.767 491.843 229.5C492.041 229.233 492.309 229.023 492.648 228.871C492.99 228.719 493.378 228.642 493.81 228.642C494.419 228.642 494.897 228.776 495.245 229.043C495.595 229.31 495.843 229.663 495.99 230.101ZM501.404 232.361V228.723H502.35V234.877H501.404V233.835H501.34C501.196 234.148 500.971 234.414 500.667 234.633C500.362 234.849 499.978 234.957 499.513 234.957C499.128 234.957 498.786 234.873 498.487 234.705C498.188 234.534 497.953 234.277 497.782 233.935C497.611 233.591 497.526 233.157 497.526 232.633V228.723H498.471V232.569C498.471 233.018 498.597 233.376 498.848 233.643C499.102 233.91 499.425 234.044 499.818 234.044C500.053 234.044 500.292 233.984 500.535 233.863C500.78 233.743 500.986 233.559 501.152 233.31C501.32 233.062 501.404 232.745 501.404 232.361ZM505.027 226.671V234.877H504.082V226.671H505.027ZM509.436 228.723V229.524H506.246V228.723H509.436ZM507.176 227.248H508.122V233.114C508.122 233.381 508.16 233.582 508.238 233.715C508.318 233.846 508.42 233.934 508.542 233.98C508.668 234.022 508.8 234.044 508.939 234.044C509.043 234.044 509.129 234.038 509.195 234.028C509.262 234.014 509.316 234.004 509.356 233.996L509.548 234.845C509.484 234.869 509.395 234.893 509.28 234.917C509.165 234.944 509.019 234.957 508.843 234.957C508.576 234.957 508.314 234.9 508.058 234.785C507.804 234.67 507.593 234.495 507.424 234.26C507.259 234.025 507.176 233.728 507.176 233.371V227.248Z" fill="#0D4949"/>
<path d="M362.668 475.873C360.918 475.873 359.427 475.397 358.196 474.445C356.965 473.484 356.025 472.095 355.374 470.275C354.724 468.448 354.399 466.241 354.399 463.655C354.399 461.085 354.724 458.89 355.374 457.071C356.032 455.243 356.977 453.85 358.208 452.89C359.447 451.922 360.933 451.438 362.668 451.438C364.402 451.438 365.885 451.922 367.116 452.89C368.354 453.85 369.299 455.243 369.949 457.071C370.608 458.89 370.937 461.085 370.937 463.655C370.937 466.241 370.611 468.448 369.961 470.275C369.311 472.095 368.37 473.484 367.139 474.445C365.908 475.397 364.417 475.873 362.668 475.873ZM362.668 473.318C364.402 473.318 365.749 472.482 366.709 470.809C367.669 469.137 368.149 466.752 368.149 463.655C368.149 461.596 367.929 459.842 367.487 458.394C367.054 456.947 366.427 455.843 365.606 455.085C364.793 454.326 363.814 453.946 362.668 453.946C360.949 453.946 359.606 454.794 358.638 456.49C357.67 458.178 357.186 460.566 357.186 463.655C357.186 465.715 357.403 467.465 357.836 468.905C358.27 470.345 358.893 471.44 359.706 472.192C360.527 472.943 361.514 473.318 362.668 473.318ZM383.386 475.873C381.853 475.873 380.487 475.61 379.287 475.083C378.094 474.557 377.146 473.825 376.441 472.888C375.745 471.944 375.365 470.848 375.303 469.602H378.23C378.292 470.368 378.555 471.03 379.02 471.588C379.484 472.137 380.092 472.563 380.843 472.865C381.594 473.167 382.426 473.318 383.34 473.318C384.362 473.318 385.268 473.14 386.058 472.784C386.847 472.428 387.467 471.932 387.916 471.297C388.365 470.662 388.589 469.927 388.589 469.091C388.589 468.216 388.373 467.445 387.939 466.78C387.505 466.106 386.871 465.579 386.034 465.2C385.198 464.821 384.176 464.631 382.968 464.631H381.064V462.076H382.968C383.913 462.076 384.741 461.906 385.454 461.565C386.174 461.224 386.735 460.744 387.138 460.125C387.548 459.506 387.753 458.778 387.753 457.942C387.753 457.136 387.575 456.436 387.219 455.839C386.863 455.243 386.36 454.779 385.709 454.446C385.067 454.113 384.308 453.946 383.433 453.946C382.612 453.946 381.838 454.097 381.11 454.399C380.39 454.694 379.802 455.123 379.345 455.688C378.888 456.246 378.64 456.92 378.602 457.709H375.814C375.861 456.463 376.236 455.371 376.941 454.434C377.645 453.49 378.567 452.754 379.705 452.228C380.851 451.701 382.109 451.438 383.479 451.438C384.95 451.438 386.212 451.736 387.265 452.332C388.318 452.921 389.127 453.699 389.693 454.666C390.258 455.634 390.54 456.68 390.54 457.802C390.54 459.142 390.188 460.284 389.484 461.228C388.787 462.173 387.838 462.827 386.638 463.191V463.377C388.14 463.624 389.313 464.263 390.157 465.293C391.001 466.315 391.423 467.581 391.423 469.091C391.423 470.384 391.071 471.545 390.366 472.575C389.669 473.597 388.717 474.402 387.509 474.99C386.301 475.579 384.927 475.873 383.386 475.873Z" fill="#0D4949"/>
<path d="M359.309 482.843V491.049H358.315V482.843H359.309ZM362.118 487.347V491.049H361.173V484.894H362.086V485.856H362.166C362.311 485.544 362.53 485.292 362.824 485.103C363.117 484.91 363.497 484.814 363.962 484.814C364.378 484.814 364.743 484.9 365.055 485.071C365.368 485.239 365.611 485.495 365.785 485.84C365.958 486.182 366.045 486.615 366.045 487.138V491.049H365.099V487.202C365.099 486.719 364.974 486.342 364.723 486.072C364.472 485.8 364.127 485.664 363.689 485.664C363.387 485.664 363.117 485.729 362.88 485.86C362.645 485.991 362.459 486.182 362.323 486.433C362.187 486.684 362.118 486.989 362.118 487.347ZM372.585 484.894L370.309 491.049H369.348L367.072 484.894H368.098L369.796 489.799H369.861L371.559 484.894H372.585ZM376.193 491.177C375.6 491.177 375.089 491.046 374.659 490.784C374.231 490.52 373.901 490.151 373.669 489.679C373.439 489.203 373.324 488.65 373.324 488.02C373.324 487.389 373.439 486.834 373.669 486.353C373.901 485.869 374.225 485.493 374.639 485.223C375.055 484.951 375.542 484.814 376.097 484.814C376.418 484.814 376.734 484.868 377.047 484.975C377.359 485.081 377.644 485.255 377.9 485.495C378.157 485.733 378.361 486.048 378.513 486.441C378.666 486.834 378.742 487.317 378.742 487.892V488.292H373.998V487.475H377.78C377.78 487.128 377.711 486.818 377.572 486.545C377.436 486.273 377.241 486.058 376.987 485.9C376.736 485.743 376.439 485.664 376.097 485.664C375.721 485.664 375.395 485.757 375.12 485.944C374.847 486.129 374.637 486.369 374.49 486.665C374.344 486.962 374.27 487.28 374.27 487.619V488.164C374.27 488.629 374.35 489.023 374.511 489.346C374.673 489.667 374.899 489.911 375.188 490.079C375.476 490.245 375.811 490.328 376.193 490.328C376.442 490.328 376.666 490.293 376.867 490.224C377.07 490.151 377.245 490.045 377.391 489.903C377.538 489.759 377.652 489.58 377.732 489.366L378.646 489.623C378.549 489.932 378.388 490.205 378.161 490.44C377.934 490.672 377.653 490.854 377.319 490.985C376.985 491.113 376.61 491.177 376.193 491.177ZM384.54 486.273L383.69 486.513C383.637 486.372 383.558 486.234 383.454 486.101C383.352 485.964 383.213 485.852 383.037 485.764C382.861 485.676 382.635 485.632 382.36 485.632C381.983 485.632 381.669 485.719 381.418 485.892C381.17 486.063 381.046 486.281 381.046 486.545C381.046 486.78 381.131 486.966 381.302 487.102C381.473 487.238 381.74 487.352 382.103 487.443L383.017 487.667C383.567 487.801 383.977 488.005 384.247 488.28C384.517 488.553 384.652 488.904 384.652 489.334C384.652 489.687 384.55 490.002 384.347 490.28C384.147 490.557 383.866 490.776 383.506 490.937C383.145 491.097 382.726 491.177 382.248 491.177C381.62 491.177 381.1 491.041 380.689 490.768C380.278 490.496 380.017 490.098 379.908 489.574L380.805 489.35C380.891 489.681 381.052 489.93 381.29 490.095C381.53 490.261 381.844 490.344 382.232 490.344C382.672 490.344 383.022 490.25 383.281 490.063C383.543 489.874 383.674 489.647 383.674 489.382C383.674 489.168 383.599 488.989 383.45 488.845C383.3 488.698 383.07 488.589 382.761 488.517L381.735 488.276C381.171 488.143 380.757 487.936 380.493 487.655C380.231 487.372 380.1 487.018 380.1 486.593C380.1 486.246 380.198 485.939 380.393 485.672C380.59 485.405 380.859 485.195 381.198 485.043C381.54 484.89 381.927 484.814 382.36 484.814C382.969 484.814 383.447 484.948 383.794 485.215C384.144 485.482 384.393 485.835 384.54 486.273ZM388.752 484.894V485.696H385.562V484.894H388.752ZM386.492 483.42H387.438V489.286C387.438 489.553 387.476 489.753 387.554 489.887C387.634 490.018 387.735 490.106 387.858 490.151C387.984 490.194 388.116 490.216 388.255 490.216C388.359 490.216 388.445 490.21 388.511 490.2C388.578 490.186 388.632 490.175 388.672 490.167L388.864 491.017C388.8 491.041 388.71 491.065 388.596 491.089C388.481 491.116 388.335 491.129 388.159 491.129C387.892 491.129 387.63 491.072 387.373 490.957C387.12 490.842 386.909 490.667 386.74 490.432C386.575 490.197 386.492 489.9 386.492 489.542V483.42Z" fill="#0D4949"/>
<path d="M111.283 457.739C109.534 457.739 108.043 457.263 106.812 456.311C105.581 455.351 104.64 453.961 103.99 452.141C103.34 450.314 103.014 448.107 103.014 445.521C103.014 442.951 103.34 440.756 103.99 438.937C104.648 437.109 105.593 435.716 106.824 434.756C108.063 433.788 109.549 433.304 111.283 433.304C113.018 433.304 114.5 433.788 115.731 434.756C116.97 435.716 117.915 437.109 118.565 438.937C119.223 440.756 119.552 442.951 119.552 445.521C119.552 448.107 119.227 450.314 118.577 452.141C117.926 453.961 116.986 455.351 115.755 456.311C114.524 457.263 113.033 457.739 111.283 457.739ZM111.283 455.184C113.018 455.184 114.365 454.348 115.325 452.676C116.285 451.003 116.765 448.618 116.765 445.521C116.765 443.462 116.544 441.708 116.103 440.261C115.669 438.813 115.042 437.709 114.222 436.951C113.409 436.192 112.429 435.812 111.283 435.812C109.565 435.812 108.221 436.66 107.253 438.356C106.286 440.044 105.802 442.432 105.802 445.521C105.802 447.581 106.019 449.331 106.452 450.771C106.886 452.211 107.509 453.307 108.322 454.058C109.143 454.809 110.13 455.184 111.283 455.184ZM123.408 452.536V450.167L133.86 433.629H135.579V437.299H134.418L126.52 449.795V449.981H140.596V452.536H123.408ZM134.604 457.414V451.816V450.713V433.629H137.344V457.414H134.604Z" fill="#0D4949"/>
<path d="M114.824 467.273C114.736 467.003 114.62 466.762 114.476 466.548C114.334 466.332 114.164 466.147 113.967 465.995C113.772 465.843 113.55 465.727 113.302 465.646C113.053 465.566 112.781 465.526 112.484 465.526C111.998 465.526 111.556 465.652 111.158 465.903C110.76 466.154 110.443 466.524 110.208 467.013C109.973 467.502 109.856 468.101 109.856 468.812C109.856 469.522 109.975 470.122 110.212 470.611C110.45 471.1 110.772 471.47 111.178 471.721C111.584 471.972 112.041 472.097 112.548 472.097C113.018 472.097 113.432 471.997 113.79 471.797C114.151 471.594 114.432 471.308 114.632 470.939C114.835 470.568 114.936 470.131 114.936 469.629L115.241 469.693H112.773V468.812H115.898V469.693C115.898 470.369 115.754 470.957 115.465 471.456C115.179 471.956 114.784 472.343 114.279 472.618C113.777 472.891 113.2 473.027 112.548 473.027C111.822 473.027 111.183 472.856 110.633 472.514C110.085 472.172 109.658 471.686 109.351 471.056C109.046 470.425 108.894 469.677 108.894 468.812C108.894 468.163 108.981 467.579 109.155 467.061C109.331 466.54 109.579 466.097 109.9 465.731C110.22 465.365 110.6 465.084 111.038 464.889C111.476 464.694 111.958 464.597 112.484 464.597C112.917 464.597 113.32 464.662 113.694 464.793C114.071 464.921 114.406 465.104 114.7 465.342C114.996 465.577 115.244 465.859 115.441 466.187C115.639 466.513 115.775 466.875 115.85 467.273H114.824ZM117.472 472.915V466.76H118.385V467.69H118.449C118.562 467.385 118.765 467.138 119.058 466.949C119.352 466.759 119.683 466.664 120.052 466.664C120.122 466.664 120.208 466.665 120.313 466.668C120.417 466.671 120.496 466.675 120.549 466.68V467.642C120.517 467.634 120.443 467.622 120.329 467.606C120.216 467.587 120.098 467.578 119.972 467.578C119.673 467.578 119.406 467.64 119.171 467.766C118.938 467.889 118.754 468.06 118.618 468.279C118.484 468.495 118.417 468.742 118.417 469.02V472.915H117.472ZM123.983 473.043C123.427 473.043 122.94 472.911 122.52 472.646C122.104 472.382 121.778 472.012 121.543 471.536C121.31 471.061 121.194 470.505 121.194 469.87C121.194 469.229 121.31 468.669 121.543 468.191C121.778 467.713 122.104 467.341 122.52 467.077C122.94 466.812 123.427 466.68 123.983 466.68C124.538 466.68 125.025 466.812 125.441 467.077C125.861 467.341 126.187 467.713 126.419 468.191C126.654 468.669 126.772 469.229 126.772 469.87C126.772 470.505 126.654 471.061 126.419 471.536C126.187 472.012 125.861 472.382 125.441 472.646C125.025 472.911 124.538 473.043 123.983 473.043ZM123.983 472.194C124.405 472.194 124.752 472.085 125.025 471.869C125.297 471.653 125.499 471.368 125.63 471.016C125.76 470.663 125.826 470.281 125.826 469.87C125.826 469.458 125.76 469.075 125.63 468.72C125.499 468.364 125.297 468.077 125.025 467.858C124.752 467.639 124.405 467.53 123.983 467.53C123.561 467.53 123.213 467.639 122.941 467.858C122.669 468.077 122.467 468.364 122.336 468.72C122.205 469.075 122.14 469.458 122.14 469.87C122.14 470.281 122.205 470.663 122.336 471.016C122.467 471.368 122.669 471.653 122.941 471.869C123.213 472.085 123.561 472.194 123.983 472.194ZM129.4 472.915L127.525 466.76H128.519L129.849 471.472H129.913L131.227 466.76H132.237L133.535 471.456H133.599L134.929 466.76H135.923L134.048 472.915H133.118L131.772 468.187H131.676L130.33 472.915H129.4Z" fill="#0D4949"/>
<path d="M24.5494 204.592C22.7996 204.592 21.3092 204.116 20.0781 203.164C18.8471 202.203 17.9064 200.814 17.256 198.994C16.6056 197.167 16.2804 194.96 16.2804 192.374C16.2804 189.804 16.6056 187.609 17.256 185.79C17.9141 183.962 18.8587 182.569 20.0897 181.609C21.3285 180.641 22.8151 180.157 24.5494 180.157C26.2837 180.157 27.7663 180.641 28.9974 181.609C30.2362 182.569 31.1808 183.962 31.8311 185.79C32.4892 187.609 32.8183 189.804 32.8183 192.374C32.8183 194.96 32.4931 197.167 31.8427 198.994C31.1924 200.814 30.2517 202.203 29.0206 203.164C27.7896 204.116 26.2992 204.592 24.5494 204.592ZM24.5494 202.037C26.2837 202.037 27.6309 201.201 28.5909 199.528C29.551 197.856 30.031 195.471 30.031 192.374C30.031 190.315 29.8104 188.561 29.369 187.113C28.9355 185.666 28.3083 184.562 27.4876 183.804C26.6747 183.045 25.6952 182.665 24.5494 182.665C22.8305 182.665 21.4872 183.513 20.5194 185.209C19.5516 186.897 19.0677 189.285 19.0677 192.374C19.0677 194.434 19.2845 196.184 19.7181 197.624C20.1517 199.064 20.7749 200.159 21.5879 200.91C22.4086 201.662 23.3957 202.037 24.5494 202.037ZM44.6642 204.592C43.3016 204.592 42.0744 204.321 40.9827 203.779C39.891 203.237 39.0161 202.494 38.358 201.549C37.6999 200.605 37.3399 199.528 37.2779 198.321H40.0652C40.1736 199.397 40.6614 200.287 41.5285 200.992C42.4034 201.689 43.4487 202.037 44.6642 202.037C45.6398 202.037 46.5069 201.809 47.2657 201.352C48.0322 200.895 48.6322 200.268 49.0658 199.47C49.5071 198.665 49.7278 197.755 49.7278 196.741C49.7278 195.704 49.4994 194.778 49.0426 193.966C48.5935 193.145 47.9741 192.498 47.1844 192.026C46.3947 191.554 45.4927 191.314 44.4784 191.306C43.7506 191.298 43.0035 191.411 42.237 191.643C41.4705 191.867 40.8395 192.158 40.3439 192.514L37.6496 192.189L39.0897 180.482H51.4466V183.037H41.5053L40.6691 190.052H40.8085C41.2963 189.665 41.9079 189.343 42.6434 189.088C43.379 188.832 44.1455 188.705 44.943 188.705C46.3985 188.705 47.6954 189.053 48.8335 189.75C49.9794 190.439 50.8775 191.383 51.5279 192.584C52.186 193.784 52.5151 195.154 52.5151 196.695C52.5151 198.212 52.1744 199.567 51.4931 200.76C50.8195 201.944 49.8904 202.881 48.7058 203.57C47.5212 204.251 46.174 204.592 44.6642 204.592Z" fill="#0D4949"/>
<path d="M2.52613 220.086H-0.00618475V211.88H2.63832C3.43434 211.88 4.1155 212.044 4.6818 212.373C5.2481 212.699 5.68217 213.167 5.98402 213.779C6.28587 214.388 6.43679 215.117 6.43679 215.967C6.43679 216.822 6.28453 217.558 5.98002 218.175C5.6755 218.789 5.23207 219.262 4.64975 219.593C4.06742 219.922 3.35955 220.086 2.52613 220.086ZM0.987508 219.204H2.46202C3.14051 219.204 3.7028 219.073 4.14889 218.812C4.59499 218.55 4.92755 218.177 5.14659 217.694C5.36563 217.21 5.47515 216.635 5.47515 215.967C5.47515 215.304 5.36697 214.734 5.1506 214.256C4.93423 213.775 4.61102 213.406 4.18095 213.15C3.75088 212.891 3.2153 212.761 2.57421 212.761H0.987508V219.204ZM7.97542 220.086V213.931H8.88897V214.861H8.95308C9.06527 214.556 9.26828 214.309 9.56212 214.12C9.85595 213.93 10.1872 213.835 10.5558 213.835C10.6253 213.835 10.7121 213.837 10.8163 213.839C10.9204 213.842 10.9992 213.846 11.0527 213.851V214.813C11.0206 214.805 10.9471 214.793 10.8323 214.777C10.7201 214.758 10.6012 214.749 10.4757 214.749C10.1765 214.749 9.90938 214.812 9.67431 214.937C9.44191 215.06 9.2576 215.231 9.12137 215.45C8.98781 215.666 8.92103 215.913 8.92103 216.191V220.086H7.97542ZM14.5666 220.214C13.9736 220.214 13.4621 220.083 13.032 219.821C12.6046 219.557 12.2747 219.188 12.0423 218.716C11.8126 218.24 11.6978 217.687 11.6978 217.057C11.6978 216.426 11.8126 215.871 12.0423 215.39C12.2747 214.906 12.598 214.53 13.012 214.26C13.4287 213.987 13.9149 213.851 14.4705 213.851C14.791 213.851 15.1076 213.905 15.4201 214.012C15.7326 214.118 16.0171 214.292 16.2736 214.532C16.53 214.77 16.7343 215.085 16.8866 215.478C17.0389 215.871 17.115 216.354 17.115 216.928V217.329H12.3709V216.512H16.1533C16.1533 216.165 16.0839 215.855 15.945 215.582C15.8088 215.31 15.6138 215.095 15.36 214.937C15.1089 214.78 14.8124 214.701 14.4705 214.701C14.0938 214.701 13.768 214.794 13.4928 214.981C13.2204 215.165 13.0107 215.406 12.8637 215.702C12.7168 215.999 12.6434 216.317 12.6434 216.656V217.201C12.6434 217.666 12.7235 218.06 12.8838 218.383C13.0467 218.704 13.2724 218.948 13.5609 219.116C13.8494 219.282 14.1847 219.365 14.5666 219.365C14.8151 219.365 15.0395 219.33 15.2398 219.26C15.4428 219.188 15.6178 219.081 15.7647 218.94C15.9116 218.796 16.0251 218.617 16.1053 218.403L17.0188 218.659C16.9227 218.969 16.7611 219.242 16.534 219.477C16.3069 219.709 16.0265 219.891 15.6926 220.022C15.3587 220.15 14.9834 220.214 14.5666 220.214ZM20.3645 220.23C19.9745 220.23 19.6206 220.157 19.3027 220.01C18.9848 219.86 18.7324 219.645 18.5454 219.365C18.3584 219.081 18.2649 218.74 18.2649 218.339C18.2649 217.986 18.3344 217.7 18.4733 217.481C18.6122 217.26 18.7979 217.086 19.0303 216.961C19.2626 216.835 19.5191 216.742 19.7996 216.68C20.0827 216.616 20.3672 216.565 20.653 216.528C21.027 216.48 21.3302 216.444 21.5626 216.42C21.7976 216.393 21.9686 216.349 22.0754 216.287C22.185 216.226 22.2397 216.119 22.2397 215.967V215.935C22.2397 215.539 22.1315 215.232 21.9152 215.013C21.7015 214.794 21.3769 214.685 20.9415 214.685C20.4901 214.685 20.1361 214.784 19.8797 214.981C19.6233 215.179 19.443 215.39 19.3388 215.614L18.4412 215.294C18.6015 214.92 18.8152 214.629 19.0823 214.42C19.3521 214.209 19.646 214.062 19.9638 213.979C20.2844 213.894 20.5996 213.851 20.9095 213.851C21.1071 213.851 21.3342 213.875 21.5906 213.923C21.8497 213.969 22.0995 214.064 22.3399 214.208C22.583 214.352 22.7846 214.57 22.9449 214.861C23.1052 215.152 23.1853 215.542 23.1853 216.031V220.086H22.2397V219.252H22.1916C22.1275 219.386 22.0207 219.529 21.8711 219.681C21.7215 219.833 21.5225 219.963 21.2741 220.07C21.0257 220.177 20.7225 220.23 20.3645 220.23ZM20.5088 219.381C20.8827 219.381 21.1979 219.307 21.4544 219.16C21.7135 219.013 21.9085 218.824 22.0394 218.591C22.1729 218.359 22.2397 218.115 22.2397 217.858V216.993C22.1997 217.041 22.1115 217.085 21.9753 217.125C21.8417 217.162 21.6868 217.196 21.5105 217.225C21.3368 217.252 21.1672 217.276 21.0016 217.297C20.8387 217.316 20.7064 217.332 20.6049 217.345C20.3592 217.377 20.1295 217.429 19.9158 217.501C19.7047 217.571 19.5338 217.676 19.4029 217.818C19.2747 217.957 19.2106 218.147 19.2106 218.387C19.2106 218.716 19.3321 218.964 19.5752 219.132C19.8209 219.298 20.1321 219.381 20.5088 219.381ZM24.9113 220.086V213.931H25.8248V214.893H25.905C26.0332 214.564 26.2402 214.309 26.526 214.128C26.8118 213.943 27.1551 213.851 27.5558 213.851C27.9618 213.851 28.2997 213.943 28.5695 214.128C28.842 214.309 29.0543 214.564 29.2066 214.893H29.2707C29.4283 214.575 29.6647 214.323 29.9799 214.136C30.2951 213.946 30.6731 213.851 31.1138 213.851C31.6641 213.851 32.1142 214.024 32.4641 214.368C32.8141 214.71 32.989 215.243 32.989 215.967V220.086H32.0434V215.967C32.0434 215.513 31.9192 215.188 31.6708 214.993C31.4224 214.798 31.1299 214.701 30.7933 214.701C30.3606 214.701 30.0253 214.832 29.7876 215.093C29.5498 215.352 29.431 215.681 29.431 216.079V220.086H28.4693V215.871C28.4693 215.521 28.3558 215.239 28.1288 215.025C27.9017 214.809 27.6092 214.701 27.2513 214.701C27.0055 214.701 26.7758 214.766 26.5621 214.897C26.3511 215.028 26.1801 215.21 26.0492 215.442C25.921 215.672 25.8569 215.937 25.8569 216.239V220.086H24.9113ZM34.8462 220.086V211.88H35.8399V215.534H40.2153V211.88H41.209V220.086H40.2153V216.416H35.8399V220.086H34.8462ZM45.5705 220.214C45.0149 220.214 44.5274 220.082 44.108 219.817C43.6913 219.553 43.3654 219.183 43.1303 218.708C42.8979 218.232 42.7817 217.676 42.7817 217.041C42.7817 216.4 42.8979 215.84 43.1303 215.362C43.3654 214.884 43.6913 214.512 44.108 214.248C44.5274 213.983 45.0149 213.851 45.5705 213.851C46.1261 213.851 46.6122 213.983 47.029 214.248C47.4483 214.512 47.7742 214.884 48.0066 215.362C48.2417 215.84 48.3592 216.4 48.3592 217.041C48.3592 217.676 48.2417 218.232 48.0066 218.708C47.7742 219.183 47.4483 219.553 47.029 219.817C46.6122 220.082 46.1261 220.214 45.5705 220.214ZM45.5705 219.365C45.9925 219.365 46.3398 219.256 46.6122 219.04C46.8847 218.824 47.0864 218.539 47.2173 218.187C47.3482 217.834 47.4136 217.452 47.4136 217.041C47.4136 216.629 47.3482 216.246 47.2173 215.891C47.0864 215.535 46.8847 215.248 46.6122 215.029C46.3398 214.81 45.9925 214.701 45.5705 214.701C45.1484 214.701 44.8012 214.81 44.5287 215.029C44.2562 215.248 44.0546 215.535 43.9237 215.891C43.7928 216.246 43.7273 216.629 43.7273 217.041C43.7273 217.452 43.7928 217.834 43.9237 218.187C44.0546 218.539 44.2562 218.824 44.5287 219.04C44.8012 219.256 45.1484 219.365 45.5705 219.365ZM53.6813 217.57V213.931H54.6269V220.086H53.6813V219.044H53.6172C53.4729 219.357 53.2486 219.622 52.944 219.841C52.6395 220.058 52.2549 220.166 51.7901 220.166C51.4054 220.166 51.0635 220.082 50.7643 219.914C50.4651 219.743 50.2301 219.486 50.0591 219.144C49.8882 218.8 49.8027 218.366 49.8027 217.842V213.931H50.7483V217.778C50.7483 218.227 50.8738 218.585 51.1249 218.852C51.3787 219.119 51.7019 219.252 52.0946 219.252C52.3297 219.252 52.5687 219.192 52.8118 219.072C53.0576 218.952 53.2632 218.768 53.4289 218.519C53.5972 218.271 53.6813 217.954 53.6813 217.57ZM60.7183 215.31L59.8688 215.55C59.8154 215.409 59.7366 215.271 59.6324 215.137C59.5309 215.001 59.392 214.889 59.2157 214.801C59.0394 214.713 58.8137 214.669 58.5386 214.669C58.1619 214.669 57.8481 214.755 57.597 214.929C57.3485 215.1 57.2243 215.318 57.2243 215.582C57.2243 215.817 57.3098 216.003 57.4808 216.139C57.6517 216.275 57.9188 216.389 58.2821 216.48L59.1957 216.704C59.746 216.838 60.156 217.042 60.4258 217.317C60.6956 217.59 60.8305 217.941 60.8305 218.371C60.8305 218.724 60.729 219.039 60.526 219.317C60.3256 219.594 60.0451 219.813 59.6845 219.974C59.3239 220.134 58.9045 220.214 58.4264 220.214C57.7986 220.214 57.2791 220.078 56.8677 219.805C56.4564 219.533 56.1959 219.135 56.0864 218.611L56.9839 218.387C57.0694 218.718 57.231 218.967 57.4687 219.132C57.7092 219.298 58.023 219.381 58.4103 219.381C58.8511 219.381 59.201 219.287 59.4601 219.1C59.7219 218.911 59.8528 218.683 59.8528 218.419C59.8528 218.205 59.778 218.026 59.6284 217.882C59.4788 217.735 59.2491 217.626 58.9392 217.554L57.9135 217.313C57.3499 217.18 56.9358 216.973 56.6714 216.692C56.4096 216.409 56.2787 216.055 56.2787 215.63C56.2787 215.283 56.3762 214.976 56.5712 214.709C56.7689 214.442 57.0373 214.232 57.3766 214.08C57.7185 213.927 58.1058 213.851 58.5386 213.851C59.1476 213.851 59.6258 213.985 59.973 214.252C60.3229 214.519 60.5714 214.872 60.7183 215.31ZM64.8343 220.214C64.2413 220.214 63.7297 220.083 63.2997 219.821C62.8723 219.557 62.5424 219.188 62.31 218.716C62.0803 218.24 61.9654 217.687 61.9654 217.057C61.9654 216.426 62.0803 215.871 62.31 215.39C62.5424 214.906 62.8656 214.53 63.2796 214.26C63.6964 213.987 64.1825 213.851 64.7381 213.851C65.0587 213.851 65.3752 213.905 65.6877 214.012C66.0003 214.118 66.2848 214.292 66.5412 214.532C66.7976 214.77 67.002 215.085 67.1542 215.478C67.3065 215.871 67.3826 216.354 67.3826 216.928V217.329H62.6386V216.512H66.421C66.421 216.165 66.3515 215.855 66.2126 215.582C66.0764 215.31 65.8814 215.095 65.6276 214.937C65.3766 214.78 65.08 214.701 64.7381 214.701C64.3615 214.701 64.0356 214.794 63.7605 214.981C63.488 215.165 63.2783 215.406 63.1314 215.702C62.9845 215.999 62.911 216.317 62.911 216.656V217.201C62.911 217.666 62.9912 218.06 63.1514 218.383C63.3144 218.704 63.5401 218.948 63.8286 219.116C64.1171 219.282 64.4523 219.365 64.8343 219.365C65.0827 219.365 65.3071 219.33 65.5074 219.26C65.7105 219.188 65.8854 219.081 66.0323 218.94C66.1793 218.796 66.2928 218.617 66.3729 218.403L67.2865 218.659C67.1903 218.969 67.0287 219.242 66.8016 219.477C66.5746 219.709 66.2941 219.891 65.9602 220.022C65.6263 220.15 65.251 220.214 64.8343 220.214Z" fill="#0D4949"/>
<path d="M90.7111 429.178C52.4079 386.834 28.9762 330.038 28.9762 267.607C28.9762 261.042 29.2352 254.539 29.7439 248.109" stroke="#0D4949" stroke-width="3.0292" stroke-miterlimit="10"/>
<path d="M93.2004 426.587C94.4978 428.047 94.4005 430.316 92.9824 431.652C91.5643 432.988 89.3609 432.888 88.0635 431.426C86.7661 429.965 86.8634 427.697 88.2827 426.361C89.6996 425.025 91.9018 425.127 93.2004 426.587Z" fill="#0D4949"/>
<path d="M34.4236 248.708C34.6158 246.076 32.6996 243.781 30.1435 243.583C27.5873 243.385 25.3582 245.358 25.166 247.99C24.9738 250.622 26.89 252.918 29.4461 253.115C32.0022 253.313 34.2302 251.34 34.4236 248.708Z" fill="#0D4949"/>
<path d="M341.994 488.956C316.316 499.138 288.42 504.72 259.257 504.72C220.984 504.72 184.891 495.105 153.134 478.095" stroke="#0D4949" stroke-width="3.0292" stroke-miterlimit="10"/>
<path d="M340.589 485.61C342.389 484.915 344.395 485.855 345.071 487.709C345.746 489.563 344.833 491.629 343.032 492.324C341.232 493.019 339.226 492.079 338.551 490.225C337.876 488.372 338.789 486.306 340.589 485.61Z" fill="#0D4949"/>
<path d="M155.479 473.851C153.191 472.66 150.398 473.603 149.242 475.958C148.084 478.314 149 481.19 151.288 482.381C153.576 483.572 156.369 482.629 157.525 480.274C158.682 477.919 157.766 475.043 155.479 473.851Z" fill="#0D4949"/>
<path d="M489.435 260.429C489.504 262.812 489.538 265.203 489.538 267.603C489.538 343.451 454.953 410.981 401.133 454.385" stroke="#0D4949" stroke-width="3.0292" stroke-miterlimit="10"/>
<path d="M485.908 260.687C485.866 258.708 487.391 257.068 489.313 257.024C491.235 256.981 492.828 258.551 492.87 260.53C492.912 262.509 491.387 264.149 489.465 264.193C487.543 264.235 485.951 262.666 485.908 260.687Z" fill="#0D4949"/>
<path d="M398.368 450.433C396.366 452.08 396.037 455.088 397.637 457.15C399.236 459.212 402.158 459.55 404.16 457.904C406.163 456.258 406.492 453.25 404.892 451.187C403.293 449.124 400.371 448.786 398.368 450.433Z" fill="#0D4949"/>
<path d="M315.785 37.6843C387.319 56.2736 445.536 109.329 472.802 178.693" stroke="#0D4949" stroke-width="3.0292" stroke-miterlimit="10"/>
<path d="M315.025 41.2702C313.169 40.7537 312.071 38.7854 312.574 36.8739C313.075 34.9635 314.987 33.8316 316.843 34.3493C318.699 34.8658 319.798 36.834 319.295 38.7456C318.792 40.6559 316.881 41.7855 315.025 41.2702Z" fill="#0D4949"/>
<path d="M468.345 180.355C469.334 182.79 472.053 183.939 474.418 182.921C476.783 181.902 477.899 179.102 476.91 176.667C475.921 174.232 473.202 173.083 470.836 174.101C468.471 175.12 467.356 177.92 468.345 180.355Z" fill="#0D4949"/>
</svg>
