<svg width="42" height="36" viewBox="0 0 42 36" fill="none" xmlns="http://www.w3.org/2000/svg">
<rect width="42" height="36" fill="#1E1E1E"/>
<g id="on-boarding4" clip-path="url(#clip0_0_1)">
<rect width="1920" height="1374" transform="translate(-830 -1045)" fill="white"/>
<g id="Group 52">
<g id="Ellipse 1" filter="url(#filter0_f_0_1)">
<ellipse cx="-616.5" cy="119.5" rx="378.5" ry="359.5" fill="#17E093" fill-opacity="0.1"/>
</g>
</g>
<g id="Frame 604">
<rect width="930" height="1260" transform="translate(-810 -988)" fill="white"/>
<g id="Frame 609">
<rect id="Rectangle 4471" x="0.5" y="-0.5" width="830" height="68" transform="matrix(1 0 0 -1 -761 52)" stroke="#E0E0E0"/>
<g id="logos:paypal" clip-path="url(#clip1_0_1)">
<path id="Vector" d="M35.6302 2.80254C33.3442 0.909325 29.2118 0.0976562 23.9252 0.0976562H8.58206C8.05901 0.0976703 7.55311 0.233257 7.15533 0.48004C6.75755 0.726822 6.49398 1.06861 6.41201 1.44396L0.0234144 30.8837C-0.10357 31.4643 0.51511 31.99 1.32492 31.99H10.7972L13.1761 21.0265L13.1023 21.3698C13.2718 20.5949 14.184 20.0233 15.2642 20.0233H19.7654C28.608 20.0233 35.532 17.4137 37.5545 9.8645C37.6146 9.64123 37.6666 9.42392 37.7115 9.21162C37.4562 9.11339 37.4562 9.11339 37.7115 9.21162C38.3138 6.42138 37.7074 4.52208 35.6302 2.80254Z" fill="#27346A"/>
<path id="Vector_2" d="M16.8006 8.20648C17.0596 8.11689 17.3428 8.07046 17.6296 8.07058H29.6584C31.0828 8.07058 32.4113 8.13793 33.6254 8.27991C33.9651 8.31927 34.3031 8.36625 34.6388 8.42081C35.1146 8.4971 35.585 8.59047 36.0481 8.70058C36.645 8.84542 37.2008 9.01409 37.7117 9.21162C38.3138 6.42031 37.7074 4.52208 35.6302 2.80254C33.3429 0.909325 29.2118 0.0976562 23.9252 0.0976562H8.58075C7.5004 0.0976562 6.58132 0.669126 6.41201 1.44396L0.0234153 30.8827C-0.103569 31.4641 0.515111 31.9891 1.32361 31.9891H10.7972L15.7327 9.24833C15.7813 9.02481 15.9038 8.8132 16.0898 8.63171C16.2759 8.45022 16.5198 8.30429 16.8006 8.20648Z" fill="#27346A"/>
<path id="Vector_3" d="M37.5539 9.86382C35.5313 17.4119 28.6076 20.0226 19.7648 20.0226H15.2622C14.182 20.0226 13.2697 20.5942 13.1018 21.3692L10.1423 35.0009C10.0317 35.5089 10.5725 35.9693 11.2799 35.9693H19.2649C19.7223 35.9692 20.1646 35.8506 20.5124 35.6347C20.8601 35.4188 21.0904 35.1198 21.1619 34.7916L21.2397 34.4959L22.7446 27.5658L22.8416 27.1828C22.9131 26.8546 23.1434 26.5556 23.4911 26.3397C23.8388 26.1238 24.2811 26.0052 24.7385 26.0051H25.9335C33.6686 26.0051 39.7253 23.7218 41.4952 17.1183C42.2339 14.3587 41.8517 12.0547 39.8974 10.4364C39.3046 9.9462 38.5684 9.54137 37.7109 9.21094C37.6645 9.42431 37.6141 9.64055 37.5539 9.86382Z" fill="#2790C3"/>
<path id="Vector_4" d="M35.5937 8.59828C35.2783 8.53137 34.96 8.47213 34.6392 8.42066C34.3033 8.367 33.9653 8.32033 33.6258 8.28071C32.4104 8.13779 31.0828 8.07032 29.6571 8.07032H17.6298C17.3428 8.06984 17.0594 8.11667 16.8008 8.20728C16.5197 8.3048 16.2755 8.45064 16.0894 8.63218C15.9033 8.81372 15.7809 9.02549 15.7328 9.24914L13.1764 21.0264L13.1025 21.3697C13.2707 20.5947 14.1829 20.0232 15.2632 20.0232H19.7658C28.6084 20.0232 35.5322 17.4135 37.5547 9.86436C37.615 9.64108 37.6655 9.42473 37.7119 9.21147C37.1997 9.01502 36.6453 8.84527 36.0483 8.70139C35.8977 8.6651 35.746 8.63073 35.5937 8.59828Z" fill="#1F264F"/>
</g>
</g>
</g>
</g>
<defs>
<filter id="filter0_f_0_1" x="-1495" y="-740" width="1757" height="1719" filterUnits="userSpaceOnUse" color-interpolation-filters="sRGB">
<feFlood flood-opacity="0" result="BackgroundImageFix"/>
<feBlend mode="normal" in="SourceGraphic" in2="BackgroundImageFix" result="shape"/>
<feGaussianBlur stdDeviation="250" result="effect1_foregroundBlur_0_1"/>
</filter>
<clipPath id="clip0_0_1">
<rect width="1920" height="1374" fill="white" transform="translate(-830 -1045)"/>
</clipPath>
<clipPath id="clip1_0_1">
<rect width="42" height="36" fill="white"/>
</clipPath>
</defs>
</svg>
