<svg width="68" height="68" viewBox="0 0 68 68" fill="none" xmlns="http://www.w3.org/2000/svg">
<path d="M43.6794 27.9809L30.9294 19.4809C30.6093 19.2674 30.2372 19.1447 29.8528 19.1261C29.4685 19.1075 29.0863 19.1936 28.747 19.3752C28.4078 19.5568 28.1242 19.8272 27.9266 20.1574C27.729 20.4875 27.6248 20.8652 27.625 21.25V38.25C27.6248 38.6348 27.729 39.0125 27.9266 39.3426C28.1242 39.6728 28.4078 39.9432 28.747 40.1248C29.0863 40.3064 29.4685 40.3925 29.8528 40.3739C30.2372 40.3553 30.6093 40.2326 30.9294 40.0191L43.6794 31.5191C43.9709 31.3251 44.2099 31.0621 44.3752 30.7535C44.5406 30.4448 44.6271 30.1001 44.6271 29.75C44.6271 29.3999 44.5406 29.0552 44.3752 28.7465C44.2099 28.4379 43.9709 28.1749 43.6794 27.9809ZM31.875 34.2789V25.2344L38.6697 29.75L31.875 34.2789ZM57.375 10.625H10.625C9.49783 10.625 8.41683 11.0728 7.6198 11.8698C6.82277 12.6668 6.375 13.7478 6.375 14.875V44.625C6.375 45.7522 6.82277 46.8332 7.6198 47.6302C8.41683 48.4272 9.49783 48.875 10.625 48.875H57.375C58.5022 48.875 59.5832 48.4272 60.3802 47.6302C61.1772 46.8332 61.625 45.7522 61.625 44.625V14.875C61.625 13.7478 61.1772 12.6668 60.3802 11.8698C59.5832 11.0728 58.5022 10.625 57.375 10.625ZM57.375 44.625H10.625V14.875H57.375V44.625ZM61.625 55.25C61.625 55.8136 61.4011 56.3541 61.0026 56.7526C60.6041 57.1511 60.0636 57.375 59.5 57.375H8.5C7.93641 57.375 7.39591 57.1511 6.9974 56.7526C6.59888 56.3541 6.375 55.8136 6.375 55.25C6.375 54.6864 6.59888 54.1459 6.9974 53.7474C7.39591 53.3489 7.93641 53.125 8.5 53.125H59.5C60.0636 53.125 60.6041 53.3489 61.0026 53.7474C61.4011 54.1459 61.625 54.6864 61.625 55.25Z" fill="#0D4949"/>
</svg>
