<svg width="17" height="16" viewBox="0 0 17 16" fill="none" xmlns="http://www.w3.org/2000/svg">
<path d="M12.3562 0.5C12.446 0.499936 12.5345 0.52068 12.6145 0.560552C12.6946 0.600423 12.764 0.658302 12.8172 0.7295L12.8591 0.79475L15.3452 5.31575L15.3741 5.3855L15.3833 5.4155L15.3985 5.492L15.4031 5.5625C15.4031 5.61318 15.3962 5.66364 15.3825 5.7125L15.3467 5.80625L15.3177 5.858C15.3082 5.87294 15.2981 5.88745 15.2873 5.9015C15.2788 5.91283 15.2699 5.92383 15.2606 5.9345L15.2751 5.91575L14.3044 7.00025C13.9757 6.76469 13.5964 6.60662 13.1958 6.53825L13.5661 6.125H11.2995L8.31888 13.6423C8.27696 13.7478 8.20361 13.8385 8.10844 13.9023C8.01327 13.9662 7.90072 14.0002 7.78555 14H7.78327C7.75957 14 7.73591 13.9985 7.71241 13.9955H7.70936L7.70555 13.9948C7.67901 13.9908 7.65278 13.9851 7.62708 13.9775L7.61946 13.976C7.5729 13.9629 7.52832 13.9437 7.48689 13.919L7.48003 13.9137C7.44386 13.8919 7.41059 13.8657 7.38098 13.8358L0.302885 5.92625L0.283075 5.90225L0.252599 5.858C0.20943 5.78938 0.181877 5.71236 0.171837 5.63225L0.166504 5.5625L0.16879 5.513L0.178694 5.44625C0.183441 5.4244 0.189548 5.40286 0.19698 5.38175L0.213742 5.3375L0.235075 5.29475L2.71127 0.79475C2.75396 0.717094 2.81462 0.650421 2.88835 0.600127C2.96207 0.549833 3.04679 0.517331 3.13565 0.50525L3.21336 0.5H12.3562ZM10.0728 6.125H5.49831L7.78403 11.8903L7.78555 11.888V11.891L10.0728 6.125ZM4.27241 6.125H2.00193L6.07889 10.6805L4.27241 6.125ZM5.47774 1.625H3.55317L1.69565 5H4.3806L5.47774 1.625ZM8.89108 1.625H6.67774L5.57984 5H9.98746L8.89031 1.625H8.89108ZM12.0149 1.625H10.0911L11.1882 5H13.8716L12.0149 1.625ZM14.6427 9.125C14.6427 9.62228 14.442 10.0992 14.0848 10.4508C13.7276 10.8025 13.2431 11 12.7379 11C12.2328 11 11.7483 10.8025 11.3911 10.4508C11.0339 10.0992 10.8332 9.62228 10.8332 9.125C10.8332 8.62772 11.0339 8.15081 11.3911 7.79917C11.7483 7.44754 12.2328 7.25 12.7379 7.25C13.2431 7.25 13.7276 7.44754 14.0848 7.79917C14.442 8.15081 14.6427 8.62772 14.6427 9.125ZM16.1665 13.1562C16.1665 14.3232 15.1867 15.5 12.7379 15.5C10.2892 15.5 9.30936 14.3278 9.30936 13.1562V13.079C9.30936 12.344 9.91431 11.75 10.6602 11.75H14.8156C15.5623 11.75 16.1665 12.3447 16.1665 13.079V13.1562Z" fill="#0D4949"/>
</svg>
