<svg width="195" height="214" viewBox="0 0 195 214" fill="none" xmlns="http://www.w3.org/2000/svg">
<g filter="url(#filter0_d_748_923)">
<path fill-rule="evenodd" clip-rule="evenodd" d="M4.61074 0.000106542C4.40719 0.000324209 4.20361 0.000875438 4 0.00176059V0.00986725C4.10422 0.00986725 4.21078 0.00745463 4.31852 0.0050152C4.41525 0.00282508 4.51293 0.000613354 4.61074 0.000106542ZM4 103.614V103.645C42.1507 103.31 77.839 127.45 91.6641 165.904C91.9419 167.048 92.2485 168.193 92.6126 169.327C101.216 196.594 129.661 211.52 156.152 202.661C182.634 193.812 197.129 164.523 188.526 137.246C161.872 53.2894 86.1336 -0.0452413 4.7064 2.8796e-05C32.5325 0.0305703 55.0847 23.271 55.0847 51.9202C55.0847 79.2368 34.601 101.601 8.59876 103.673C7.06584 103.604 5.53292 103.594 4 103.614Z" fill="#0D4949"/>
</g>
<defs>
<filter id="filter0_d_748_923" x="0" y="0" width="195.006" height="213.216" filterUnits="userSpaceOnUse" color-interpolation-filters="sRGB">
<feFlood flood-opacity="0" result="BackgroundImageFix"/>
<feColorMatrix in="SourceAlpha" type="matrix" values="0 0 0 0 0 0 0 0 0 0 0 0 0 0 0 0 0 0 127 0" result="hardAlpha"/>
<feOffset dy="4"/>
<feGaussianBlur stdDeviation="2"/>
<feComposite in2="hardAlpha" operator="out"/>
<feColorMatrix type="matrix" values="0 0 0 0 0 0 0 0 0 0 0 0 0 0 0 0 0 0 0.25 0"/>
<feBlend mode="normal" in2="BackgroundImageFix" result="effect1_dropShadow_748_923"/>
<feBlend mode="normal" in="SourceGraphic" in2="effect1_dropShadow_748_923" result="shape"/>
</filter>
</defs>
</svg>
