<svg width="165" height="276" viewBox="0 0 165 276" fill="none" xmlns="http://www.w3.org/2000/svg">
<path fill-rule="evenodd" clip-rule="evenodd" d="M107.55 275.454C22.9718 232.452 -20.4294 131.007 9.40746 35.893C18.011 8.6159 46.4563 -6.31005 72.9472 2.55872C99.4284 11.4176 113.924 40.7171 105.321 67.9843C104.957 69.1287 104.554 70.2336 104.123 71.3286C93.7892 109.238 107.288 148.669 135.882 171.947C113.681 157.995 84.4188 163.73 68.8658 185.783C52.5018 208.976 57.4934 241.452 80.0178 258.302C88.8678 264.897 98.0782 270.609 107.55 275.454ZM164.936 187.902L164.942 187.885C164.896 187.873 164.85 187.858 164.807 187.844C164.777 187.834 164.748 187.824 164.721 187.816C161.636 186.784 158.639 185.6 155.735 184.276C158.758 185.663 161.83 186.871 164.936 187.902Z" fill="#1A2929"/>
</svg>
