<svg width="14" height="14" viewBox="0 0 14 14" fill="none" xmlns="http://www.w3.org/2000/svg">
<path d="M7 12.7273C7.75212 12.7273 8.49687 12.5791 9.19173 12.2913C9.8866 12.0035 10.518 11.5816 11.0498 11.0498C11.5816 10.518 12.0035 9.8866 12.2913 9.19173C12.5791 8.49687 12.7273 7.75212 12.7273 7C12.7273 6.24788 12.5791 5.50313 12.2913 4.80827C12.0035 4.1134 11.5816 3.48203 11.0498 2.95021C10.518 2.41838 9.8866 1.99651 9.19173 1.70869C8.49687 1.42087 7.75212 1.27273 7 1.27273C5.48103 1.27273 4.02428 1.87613 2.95021 2.95021C1.87613 4.02428 1.27273 5.48103 1.27273 7C1.27273 8.51897 1.87613 9.97572 2.95021 11.0498C4.02428 12.1239 5.48103 12.7273 7 12.7273ZM14 7C14 10.8659 10.8659 14 7 14C3.13409 14 0 10.8659 0 7C0 3.13409 3.13409 0 7 0C10.8659 0 14 3.13409 14 7ZM8.90909 9.80891L6.36364 7.26345V2.86364H7.63636V6.73655L9.80891 8.90909L8.90909 9.80891Z" fill="#0D4949"/>
</svg>
