<svg width="11" height="11" viewBox="0 0 11 11" fill="none" xmlns="http://www.w3.org/2000/svg">
<path d="M5.25774 9.55954C5.82266 9.55954 6.38205 9.44827 6.90397 9.23208C7.42589 9.0159 7.90011 8.69903 8.29957 8.29957C8.69903 7.90011 9.0159 7.42589 9.23208 6.90397C9.44827 6.38205 9.55954 5.82266 9.55954 5.25774C9.55954 4.69283 9.44827 4.13344 9.23208 3.61152C9.0159 3.0896 8.69903 2.61538 8.29957 2.21592C7.90011 1.81646 7.42589 1.49959 6.90397 1.28341C6.38205 1.06722 5.82266 0.955954 5.25774 0.955954C4.11684 0.955954 3.02266 1.40918 2.21592 2.21592C1.40918 3.02266 0.955954 4.11684 0.955954 5.25774C0.955954 6.39865 1.40918 7.49283 2.21592 8.29957C3.02266 9.10631 4.11684 9.55954 5.25774 9.55954ZM10.5155 5.25774C10.5155 8.16145 8.16145 10.5155 5.25774 10.5155C2.35404 10.5155 0 8.16145 0 5.25774C0 2.35404 2.35404 0 5.25774 0C8.16145 0 10.5155 2.35404 10.5155 5.25774ZM6.69167 7.36753L4.77977 5.45563V2.1509H5.73572V5.05986L7.36753 6.69167L6.69167 7.36753Z" fill="white"/>
</svg>
